<?xml version="1.0" encoding="utf-8"?>
<!-- Generator: Adobe Illustrator 19.1.0, SVG Export Plug-In . SVG Version: 6.00 Build 0)  -->
<svg version="1.1" id="Layer_1" xmlns="http://www.w3.org/2000/svg" xmlns:xlink="http://www.w3.org/1999/xlink" x="0px" y="0px"
	 viewBox="0 0 21.4 38.3" enable-background="new 0 0 21.4 38.3" xml:space="preserve">
<pattern  x="-408.7" y="-114.9" width="28.8" height="28.8" patternUnits="userSpaceOnUse" id="_x31_0_dpi_10_x25_" viewBox="0.7 -29.5 28.8 28.8" overflow="visible">
	<g>
		<polygon fill="none" points="0.7,-29.5 29.5,-29.5 29.5,-0.7 0.7,-0.7 		"/>
		<g>
			<path fill="#F995FC" d="M29.5,0c0.4,0,0.7-0.3,0.7-0.7c0-0.4-0.3-0.7-0.7-0.7c-0.4,0-0.7,0.3-0.7,0.7C28.8-0.3,29.1,0,29.5,0z"/>
			<path fill="#F995FC" d="M15.1,0c0.4,0,0.7-0.3,0.7-0.7c0-0.4-0.3-0.7-0.7-0.7c-0.4,0-0.7,0.3-0.7,0.7C14.4-0.3,14.7,0,15.1,0z"/>
			<path fill="#F995FC" d="M29.5-14.4c0.4,0,0.7-0.3,0.7-0.7c0-0.4-0.3-0.7-0.7-0.7c-0.4,0-0.7,0.3-0.7,0.7
				C28.8-14.7,29.1-14.4,29.5-14.4z"/>
			<path fill="#F995FC" d="M15.1-14.4c0.4,0,0.7-0.3,0.7-0.7c0-0.4-0.3-0.7-0.7-0.7c-0.4,0-0.7,0.3-0.7,0.7
				C14.4-14.7,14.7-14.4,15.1-14.4z"/>
			<path fill="#F995FC" d="M7.9-7.2c0.4,0,0.7-0.3,0.7-0.7c0-0.4-0.3-0.7-0.7-0.7c-0.4,0-0.7,0.3-0.7,0.7C7.2-7.5,7.5-7.2,7.9-7.2z"
				/>
			<path fill="#F995FC" d="M22.3-7.2c0.4,0,0.7-0.3,0.7-0.7c0-0.4-0.3-0.7-0.7-0.7c-0.4,0-0.7,0.3-0.7,0.7
				C21.6-7.5,21.9-7.2,22.3-7.2z"/>
			<path fill="#F995FC" d="M7.9-21.6c0.4,0,0.7-0.3,0.7-0.7c0-0.4-0.3-0.7-0.7-0.7c-0.4,0-0.7,0.3-0.7,0.7
				C7.2-21.9,7.5-21.6,7.9-21.6z"/>
			<path fill="#F995FC" d="M22.3-21.6c0.4,0,0.7-0.3,0.7-0.7c0-0.4-0.3-0.7-0.7-0.7c-0.4,0-0.7,0.3-0.7,0.7
				C21.6-21.9,21.9-21.6,22.3-21.6z"/>
		</g>
		<g>
			<path fill="#F995FC" d="M0.7,0c0.4,0,0.7-0.3,0.7-0.7c0-0.4-0.3-0.7-0.7-0.7C0.3-1.4,0-1.1,0-0.7C0-0.3,0.3,0,0.7,0z"/>
			<path fill="#F995FC" d="M0.7-14.4c0.4,0,0.7-0.3,0.7-0.7c0-0.4-0.3-0.7-0.7-0.7c-0.4,0-0.7,0.3-0.7,0.7C0-14.7,0.3-14.4,0.7-14.4
				z"/>
		</g>
		<g>
			<path fill="#F995FC" d="M29.5-28.8c0.4,0,0.7-0.3,0.7-0.7c0-0.4-0.3-0.7-0.7-0.7c-0.4,0-0.7,0.3-0.7,0.7
				C28.8-29.1,29.1-28.8,29.5-28.8z"/>
			<path fill="#F995FC" d="M15.1-28.8c0.4,0,0.7-0.3,0.7-0.7c0-0.4-0.3-0.7-0.7-0.7c-0.4,0-0.7,0.3-0.7,0.7
				C14.4-29.1,14.7-28.8,15.1-28.8z"/>
		</g>
		<g>
			<path fill="#F995FC" d="M0.7-28.8c0.4,0,0.7-0.3,0.7-0.7c0-0.4-0.3-0.7-0.7-0.7c-0.4,0-0.7,0.3-0.7,0.7C0-29.1,0.3-28.8,0.7-28.8
				z"/>
		</g>
	</g>
</pattern>
<rect x="-408.7" y="-114.9" display="none" fill="url(#_x31_0_dpi_10_x25_)" width="960" height="560"/>
<g>
	<g opacity="0.49">
		<g>
			<path fill="#C69C6D" d="M12.7,9.6c1.5-0.3,2.9-0.7,4.4-1c-1-2.3-1.9-4.6-2.9-6.9C10.8,3.2,7.4,4.7,4,6.1C-0.1,7.8,3,13.8,6.9,13
				c2.8-0.6,4.8,0,7.1,1.5c0.3-2.3,0.6-4.6,0.9-6.9c-3,1.2-6.1,2.4-9.2,3.6c-4.4,1.7-2.7,8.6,2,7.2c2.8-0.8,5-0.6,7.7,0.4
				c-0.3-2.3-0.6-4.6-0.9-6.9c-3.9,2-7.8,3.8-11.9,5.4c-3.8,1.5-3.5,7.2,1,7.4c3.2,0.1,6,0.8,9,1.8c-0.3-2.3-0.6-4.6-0.9-6.9
				c-2.8,1.7-5.7,3.4-8.5,5.2c-3.4,2-1.7,6.7,1.9,7c3.5,0.3,7.1,0.6,10.6,1c-0.9-2.1-1.8-4.3-2.7-6.4c-1.8,2.1-3.7,3.6-6.2,4.9
				c-4.3,2.3-0.5,8.8,3.8,6.5c3-1.6,5.5-3.5,7.7-6.1c2.3-2.6,0.6-6.1-2.7-6.4c-3.5-0.3-7.1-0.6-10.6-1c0.6,2.3,1.3,4.7,1.9,7
				c2.8-1.7,5.7-3.4,8.5-5.2c2.9-1.8,2.1-5.8-0.9-6.9c-3.6-1.3-7.2-1.9-11-2.1c0.3,2.5,0.7,4.9,1,7.4c4.7-1.8,9.2-3.9,13.7-6.1
				c3.2-1.6,1.9-5.8-0.9-6.9c-3.9-1.5-7.7-1.6-11.7-0.4c0.7,2.4,1.3,4.8,2,7.2c3.1-1.2,6.1-2.4,9.2-3.6c3-1.2,3.7-5,0.9-6.9
				c-4-2.7-8.3-3.3-12.9-2.3c1,2.3,1.9,4.6,2.9,6.9c3.4-1.4,6.8-2.9,10.2-4.3c4.1-1.7,1.1-7.7-2.9-6.9c-1.5,0.3-2.9,0.7-4.4,1
				C6,3.4,8,10.7,12.7,9.6L12.7,9.6z"/>
		</g>
	</g>
	<path fill="none" stroke="#000000" stroke-miterlimit="10" d="M14.3,0.5c10,0,5.6,17.4,5,20.2c-1,4.4,6.3,16.7-4,16.7
		c-13.7,0-11.8-11.5-11.6-17C3.7,20.4,1.9,0.5,14.3,0.5z"/>
	<path fill="none" stroke="#000000" stroke-miterlimit="10" d="M12,19.2c1.8-0.7,3.9,0,5,1.5"/>
	<path fill="none" stroke="#000000" stroke-miterlimit="10" d="M14.9,15.8c0.7,0.8,1.3,1.6,2,2.3"/>
	<path fill="none" stroke="#000000" stroke-miterlimit="10" d="M5.7,29.6c1.6,2.2,3.8,4,6.3,5.1"/>
</g>
</svg>
