<?xml version="1.0" encoding="utf-8"?>
<!-- Generator: Adobe Illustrator 19.1.0, SVG Export Plug-In . SVG Version: 6.00 Build 0)  -->
<svg version="1.1" xmlns="http://www.w3.org/2000/svg" xmlns:xlink="http://www.w3.org/1999/xlink" x="0px" y="0px"
	 viewBox="0 0 265.5 188.2" enable-background="new 0 0 265.5 188.2" xml:space="preserve">
<g id="Layer_1" display="none">
	<g display="inline">
		<path fill="#FCFBF7" stroke="#000000" stroke-miterlimit="10" d="M-30.5,218l53.6-9.9c2.2-3.9,1.1-8.9-1-12.9S5.5,180.5,3.1,176.7
			c-4.8-7.6,2.1-16.9,0.6-25.7c-19.2-8.9-44.2-3.1-57.5,13.3c-1.2,1.5-3.8,4-5.1,5.4c-0.8,0.9,1.5,5.2,4,6.4L-30.5,218z"/>
		<path fill="#FCFBF7" stroke="#000000" stroke-miterlimit="10" d="M-49.7,194.4c2.1,3.2,4.9,5.8,7.1,8.9
			c8.1,11.5,7.3,28.9,18.7,37.2c9.9,7.2,24.8,3.1,33.2-5.8c6.9-7.3,10.7-16.8,13.7-26.5c1-3.2-1.4-6.5-4.8-6.6l-19.9-0.3
			c-1.1-9.7-0.8-19.5,0.8-29.1c1-6.2,2.4-13.2-4.6-17.3c-2.1-1.2-4.5-1.9-7-1.9c-16-0.4-36.6,7.2-42.5,22.5
			C-55,175.5-53.5,188.7-49.7,194.4z"/>
		<path fill="none" stroke="#000000" stroke-miterlimit="10" d="M3.7,151c-0.8,3.5-2.6,6.8-4.4,9.9"/>
	</g>
</g>
<g id="Layer_1_copy">
</g>
<g id="Layer_3" display="none">
	<g display="inline">
		<path fill="#FCFBF7" stroke="#000000" stroke-miterlimit="10" d="M187,116.7c10.6,2.5,32.5,16.5,32.5,16.5s5.5-4.8,22.5-5.5
			c19-0.8,12.7,50.8-4.7,73c-2.8,3.6-77.7-0.7-80.5-10.3c-5.2-17.9-4.7-35.2-0.4-53.3C156.4,137.1,178.8,114.8,187,116.7z"/>
		<path fill="#FCFBF7" stroke="#000000" stroke-miterlimit="10" d="M162.8,113.4c7.7-1.8,19.7,9.2,25,19.6c3.5-6,10-10.5,14.2-9.8
			c6.1,1.1,19,16,19,16s0,0,8.2-7.5c2.2-2,11.2-2.2,19.8-0.9c8.2,1.3,9.8,34.2,9.2,37.4c-2.4,11.1-14.2,38.2-17.4,42.8
			c-4.7,6.9-94.6-3.2-95.7-11.1c-3.2-23.9-8.5-39-2-62.2C143.2,137.7,155.2,115.2,162.8,113.4z"/>
	</g>
</g>
<g id="Layer_3_copy">
</g>
<g id="Layer_5">
	<g>
		<g opacity="0.53">
			<g>
				<path fill="#999999" d="M59.7,83.5c0.8-4.2,2-8.1,3.6-12.1c-1,2.4-2,4.9-3.1,7.3c1.5-3.3,4.1-6.3,5.4-9.6
					c-3.1,3.8-3.8,4.9-2.4,3c0.5-0.6,1-1.2,1.5-1.8c1.4-1.6,2.9-3,4.5-4.4C52,58.8,34.7,51.6,17.3,44.4c-0.1,12.3-0.3,24.7-0.2,37
					c0.1,15.1,2.2,31.4,10.5,44.5c8.4,13.1,23.7,22.4,39.7,17.6c12.4-3.7,19.1-12.8,24.8-23.6c6.7-12.6,11.8-26,17.2-39.2
					c-1,2.4-2,4.9-3.1,7.3c1.4-3.3,3.1-6.3,4.9-9.4c1.7-2.8-5.1,6.1-0.7,1.4c1.7-1.6,0.7-0.8-3.1,2.4c0.9-0.6,1.8-1.1,2.7-1.5
					c-2.4,1-4.9,2-7.3,3.1c1.9-0.8,3.7-1.3,5.8-1.6c-2.7,0.4-5.4,0.7-8.1,1.1c1-0.1,2-0.1,3,0c-2.7-0.4-5.4-0.7-8.1-1.1
					c0.5,0.1,1,0.2,1.5,0.2C89.4,72.8,82,63,74.5,53.2c0.3,6.7-0.1,13.4-1,20.1c0.4-2.7,0.7-5.4,1.1-8.1c-3.1,22.7-9.8,45-9.7,68.1
					c0.1,10.2,5.6,21.6,15.1,26.3c13.4,6.6,28.4,6.9,41.1-1.8c7.2-4.9,12.9-11,18.4-17.8c10.1-12.6,18.9-25.9,27.4-39.6
					C148,95.3,129.1,90.1,110.1,85c0.2,16.6,0.4,33.2,0.7,49.9c0.2,11.7-1,24.8,4.9,35.3c9.9,17.6,31.9,23.3,49.3,12.7
					c15.1-9.2,22.7-24.7,32.4-38.6c3.7-5.3-3.2,3.6-0.9,1.1c1.3-1.4,2.6-2.9,4-4.3c2.4-2.4,5.1-4.5,7.6-6.7c-6.6,5.9-2.5,2-0.7,0.7
					c1.4-1,2.8-2,4.2-2.9c3.3-2.2,6.7-4.3,10-6.4c-15.3-8.8-30.6-17.6-45.9-26.3c-1.3,17.3-2.6,34.5-4,51.8
					c-0.5,7.1,3.7,16.8,8.9,21.6c5,4.6,10.7,7.5,17.5,8.4c6.5,0.9,13.8,0,19.4-3.6c7.1-4.6,10.9-10.5,14-18.2
					c4.3-10.5,8.5-21.1,12.9-31.6c-1,2.4-2,4.9-3.1,7.3c0.7-1.6,2.2-3.5,2.5-5.1c-3.5,4.2-4.3,5.2-2.2,2.9c-4.6,3.1-5.5,4-2.8,2.5
					c-2.4,1-4.9,2-7.3,3.1c0.4-0.1,0.7-0.2,1.1-0.4c-2.7,0.4-5.4,0.7-8.1,1.1c0.8-0.2,1.6-0.2,2.3-0.1c-2.7-0.4-5.4-0.7-8.1-1.1
					c0.8,0.1,1.6,0.3,2.3,0.6c-2.4-1-4.9-2-7.3-3.1c1.8,1,1.5,0.6-1.1-1.2c-2.4-1.6-4.3-3.6-5.8-6.1c-1-2.4-2-4.9-3.1-7.3
					c0.1,0.3,0.2,0.7,0.3,1c-0.4-2.7-0.7-5.4-1.1-8.1c0,0.4,0,0.7,0,1.1c0.4-2.7,0.7-5.4,1.1-8.1c-0.1,0.4-0.2,0.7-0.3,1.1
					c-3.9,15.5,5,33.8,21.3,37.5c15.8,3.6,33.4-4.7,37.5-21.3c4.2-16.5-3.1-33.1-18-41.3c-15.1-8.4-34.7-5.2-46.5,7.4
					c-7.8,8.3-11.3,18.4-15.5,28.8c-3.3,8-6.5,16-9.8,24.1c20,2.7,39.9,5.4,59.9,8.1c1.3-17.3,2.6-34.5,4-51.8
					c1.8-23-27.2-38.1-45.9-26.3c-14,8.8-28.5,18.2-39,31.2c-5.6,6.9-10.2,14.2-14.9,21.6c-0.8,1.3-1.7,2.5-2.6,3.8
					c-3.1,4.8,5-5.4,1.1-1.4c-1,1.1-2.1,2.2-3.1,3.3c-2.3,2-1.4,1.4,2.7-1.9c-0.9,0.7-1.9,1.2-2.9,1.6c2.4-1,4.9-2,7.3-3.1
					c-0.5,0.1-1,0.2-1.6,0.3c5.4,0,10.8,0,16.2,0c-0.5-0.1-1-0.2-1.5-0.3c2.4,1,4.9,2,7.3,3.1c-0.3-0.2-0.7-0.5-1-0.7
					c3.6,3.6,7.3,7.3,10.9,10.9c-0.6-0.6-1-1.3-1.2-2.1c1,2.4,2,4.9,3.1,7.3c-0.1-0.4-0.2-0.9-0.3-1.3c0.4,2.7,0.7,5.4,1.1,8.1
					c-1.3-11-0.5-22.5-0.6-33.6c-0.2-11.6-0.3-23.3-0.5-34.9c-0.2-12.9-9.3-26.4-22.4-29.4c-13.5-3.1-27.1,2.1-34.4,14
					c-5.4,8.6-10.8,17.3-16.7,25.5c-0.7,1-1.4,1.9-2.1,2.9c-2.4,3.3,0.9-0.9,1.5-1.9c-1.1,2-3.1,3.8-4.6,5.5c-1.7,2-3.5,4-5.4,5.8
					c-0.8,0.8-3.7,3.2,0.2,0c3.9-3.1,0.5-0.7-0.7-0.2c2.4-1,4.9-2,7.3-3.1c-0.9,0.3-1.7,0.5-2.6,0.6c2.7-0.4,5.4-0.7,8.1-1.1
					c-0.4,0-0.9,0-1.3,0c2.7,0.4,5.4,0.7,8.1,1.1c-0.4-0.1-0.9-0.2-1.3-0.3c2.4,1,4.9,2,7.3,3.1c-0.4-0.2-0.8-0.4-1.2-0.6
					c5,8.8,10.1,17.6,15.1,26.3c0-6.1,0.5-12.2,1.3-18.3c-0.4,2.7-0.7,5.4-1.1,8.1c3.3-23.2,10.4-46.2,9.4-69.9
					c-0.3-6.9-2.3-13-6.5-18.5c-3.7-4.8-9.6-9.9-15.8-10.9c-8.9-1.5-17.9-2-26.5,1.3c-8.3,3.2-16,7.7-21.9,14.5
					C55.3,50.7,51,63.9,45.4,77.2c1-2.4,2-4.9,3.1-7.3c-2,4.8-4.2,9.5-6.5,14.2c-1.1,2.2-2.2,4.4-3.4,6.5c-0.6,1.1-1.2,2.2-1.8,3.2
					c-0.3,0.5-0.6,1.1-0.9,1.6c-1.3,2.2-0.5,1.1,2.3-3.1c4.5-2.6,9-5.2,13.5-7.8c-0.4,0.1-0.8,0.2-1.2,0.3c5.4,0,10.8,0,16.2,0
					c-0.4-0.1-0.8-0.2-1.2-0.3c2.4,1,4.9,2,7.3,3.1c1.3,1,2.7,2.1,4,3.1c3,4.1,3.9,5.1,2.6,3c-0.5-1.2-1.2-2.4-1.8-3.6
					c1,2.4,2,4.9,3.1,7.3c-1.4-3.6-2.3-7.1-2.9-10.9c0.4,2.7,0.7,5.4,1.1,8.1c-2.2-16.4-0.7-33.6-0.6-50.2
					c0.1-12.2-7.7-23.2-18.7-27.9c-11.7-4.9-24-2-33.3,6.3C13.6,34.2,4,50.6,0.9,67.3c-1.6,8.2-1.2,16.1,3.1,23.5
					c3.7,6.3,11,12.4,18.2,14C37.2,108.2,56.5,100.3,59.7,83.5L59.7,83.5z"/>
			</g>
		</g>
		<g opacity="0.6">
			<g>
				<path fill="#E6E6E6" d="M98.7,79.1c2.7-1.3,5.4-2.5,8.2-3.7c-2.6,1.1-5.2,2.2-7.7,3.3c11.7-4.8,23.8-8,36.2-9.8
					c-2.9,0.4-5.7,0.8-8.6,1.2c9.5-1.2,19-1.6,28.6-1.1c-7.6-18.5-15.3-36.9-22.9-55.4c-2.9,2.7-5.8,5.3-8.9,7.7
					c2.2-1.7,4.4-3.4,6.6-5.1c-8.5,6.5-17.7,11.9-27.6,16.1c2.6-1.1,5.2-2.2,7.7-3.3c-2.6,1.1-5.2,2-7.9,2.9
					c-13.1,4.5-24.5,16.5-23.8,31.3c0.3,5.8,1.7,11.3,4.4,16.4c4.1,7.7,11.6,11.9,19.4,14.9c28.8,11.1,60.1,5.3,90,9.3
					c-2.9-0.4-5.7-0.8-8.6-1.2c2.3,0.3,4.6,0.7,6.9,1.2c0-20.8,0-41.7,0-62.5c-42.1,11.7-84.2,23.5-126.3,35.2
					c-13.2,3.7-24.4,17.1-23.8,31.3c0.6,13.6,9.5,28.4,23.8,31.3c16.7,3.4,33.7,5.8,50.6,7.3c7.1,0.6,14.1,1,21.2,1.2
					c3.9,0.1,7.7,0.2,11.6,0.1c6.4-0.1,12.8-0.9,18.3-4.4c5.4-3.5,8.6-7.7,12.5-12.8c-1.7,2.2-3.4,4.4-5.1,6.6c0.9-1.1,1.9-2,3-2.9
					c-2.2,1.7-4.4,3.4-6.6,5.1c2.3-1.7,4.6-3.1,7.3-4.2c-2.6,1.1-5.2,2.2-7.7,3.3c8.6-3.3,18-4.3,27.1-5.5c-2.9,0.4-5.7,0.8-8.6,1.2
					c5.8-0.8,12.3-2.3,18.1-1.8c-5.5-1.5-10.9-3-16.4-4.4c0.4,0.2,0.8,0.3,1.1,0.5c-2.2-1.7-4.4-3.4-6.6-5.1
					c0.3,0.3,0.5,0.6,0.8,0.8c-2.8-4.8-5.6-9.5-8.3-14.3c0.1,0.4,0.3,0.7,0.4,1.1c-0.4-2.9-0.8-5.7-1.2-8.6c0.1,0.8,0.1,1.6,0,2.4
					c0.4-2.9,0.8-5.7,1.2-8.6c-0.4,1.4-0.8,2.7-1.4,4c1.1-2.6,2.2-5.2,3.3-7.7c-0.9,1.8-1.9,3.5-3.1,5.1c1.7-2.2,3.4-4.4,5.1-6.6
					c-1.6,2-3.3,3.7-5.3,5.2c2.2-1.7,4.4-3.4,6.6-5.1c-0.4,0.3-0.8,0.6-1.2,0.8c-9.6,6.6-16.1,15.9-16.1,28c0,11,6.1,22.8,16.1,28
					c11.2,5.8,21.5,6.8,33.8,4.6c7.6-1.4,15.6-8.5,19.4-14.9c4.1-7,5.8-17.2,3.3-25c-2.5-7.8-7.4-15.4-14.9-19.4
					c-8.1-4.3-16-4.9-25-3.3c-0.5,0.1-1,0.2-1.5,0.3c2.9-0.4,5.7-0.8,8.6-1.2c-1,0.1-2,0.1-3-0.1c2.9,0.4,5.7,0.8,8.6,1.2
					c-1-0.2-2-0.4-2.9-0.8c2.6,1.1,5.2,2.2,7.7,3.3c-0.4-0.2-0.9-0.5-1.3-0.7c0,18.7,0,37.3,0,56c14.6-10,26.2-24.9,27.1-43.2
					c0.7-13.3-6.5-25.7-17.8-32.6c-9.2-5.6-18.4-4.9-28.3-3.7c-12,1.4-24.6,2.5-36.4,5.5c-6.1,1.6-12.3,4-17.7,7.1
					c-8,4.6-13.4,10.8-18.9,18c9.3-5.4,18.7-10.7,28-16.1c-17.4,0.1-34.8-0.9-52-3.2c2.9,0.4,5.7,0.8,8.6,1.2
					c-8.3-1.1-16.5-2.5-24.7-4.2c0,20.8,0,41.7,0,62.5c42.1-11.7,84.2-23.5,126.3-35.2c13.2-3.7,24.4-17.1,23.8-31.3
					c-0.6-13.6-9.5-28.4-23.8-31.3c-13.8-2.8-27.8-3.8-41.8-3.9c-11.7-0.1-23.4,0-35-1.5c2.9,0.4,5.7,0.8,8.6,1.2
					c-6.9-1-13.6-2.6-20.1-5.1c0,20.8,0,41.7,0,62.5c22-7.5,41.7-19.1,58.7-35.1c9.5-8.9,11.6-23.8,6.7-35.4
					c-5.2-12.3-16.5-19.2-29.6-19.9c-31.1-1.7-61.5,5.5-89.4,19C59,26.5,53,35.3,51.1,42.5c-2.1,7.8-1.2,18.1,3.3,25
					C64.5,83.2,82.3,87.1,98.7,79.1L98.7,79.1z"/>
			</g>
		</g>
		<path fill="none" stroke="#000000" stroke-width="2" stroke-miterlimit="10" d="M25.4,78.5c-5.4-10.6-6.9-23.9-0.8-34
			s21.3-14.8,30.5-7.3C56.5,27,62.2,17,71.5,12.8s25.4-7.5,29.6,1.7C104.5,4.7,118.4,1,130.4,1c8.1,0,28.6,8.8,29.9,17.9
			c7.2-8,34.3-22.7,45.3-11.7c7.9,7.9,11.1,20.4,6.5,30.5c12-7.1,52.4,13,52.4,47.8c0,27.5-38.8,49.3-47.6,43.8
			c1.2,5.5-5.5,22-30.4,22c-21.4,0-27.1-6.8-35.3-15c0,7.9-6.7,32.6-44,32.6c-15.2,0-23.6-17.4-28.9-31.6c-8.2,3.2-32.2,16-49.7-1.4
			c-7.9-7.9-7.3-20.9-4.8-31.8C12.6,99.5,25.4,78.5,25.4,78.5z"/>
		<path fill="none" stroke="#000000" stroke-width="2" stroke-miterlimit="10" d="M86.1,112.6c-0.5,5,2.8,9.9,7.2,12.5
			c4.4,2.6,9.6,3.3,14.6,3.4"/>
		<path fill="none" stroke="#000000" stroke-width="2" stroke-miterlimit="10" d="M194.1,84.9c-1.4,6.8-6,12.9-12.3,16"/>
		<path fill="none" stroke="#000000" stroke-width="2" stroke-miterlimit="10" d="M110.6,31.1c-8,6.1-12.6,16.5-11.6,26.5"/>
		<path fill="none" stroke="#000000" stroke-width="2" stroke-miterlimit="10" d="M34.1,127.8c2.6,5.1,7.6,8.9,13.2,10.1"/>
	</g>
</g>
</svg>
