<?xml version="1.0" encoding="utf-8"?>
<!-- Generator: Adobe Illustrator 19.1.0, SVG Export Plug-In . SVG Version: 6.00 Build 0)  -->
<svg version="1.1" xmlns="http://www.w3.org/2000/svg" xmlns:xlink="http://www.w3.org/1999/xlink" x="0px" y="0px"
	 viewBox="0 0 960 560" enable-background="new 0 0 960 560" xml:space="preserve">
<g id="Layer_1" display="none">
	<g display="inline">
		<path fill="#FCF8E6" stroke="#000000" stroke-miterlimit="10" d="M311.3,232.8c-5.6,8.5-49.8,19.2-61.8,29.3
			c-11.4,9.5-21.9,20.1-34.2,28.3c-0.7,0.4-0.4,1.5,0.4,1.6c13,0.9,26.2-0.5,38.7-4.1l95.7-10.9L311.3,232.8z"/>
		<path fill="#FCF8E6" stroke="#000000" stroke-miterlimit="10" d="M321.7,230.2c-14.2,23.3-44.9,24.5-59.2,29.9
			c-3.5,1.3-15.9,8.1-15.9,8.1s-3.7,9.2-3.5,16.5c19.4,3.3,52.4,2.8,71.7,6.1c-11.5,19.3-53.9,37.9-75.2,44.9
			c-3.7,1.2-3.3,6.6,0.5,7.3c8.2,1.4,29.5,3,37.6,1.8c39.3-6,51.8-30.7,89.7-39.4L321.7,230.2z"/>
		<path fill="#FCFBF7" stroke="#000000" stroke-miterlimit="10" d="M340,280.8l53.6-9.9c2.2-3.9,1.1-8.9-1-12.9
			c-2.1-4-16.6-14.7-18.9-18.5c-4.8-7.6,2.1-16.9,0.6-25.7c-19.2-8.9-44.2-3.1-57.5,13.3c-1.2,1.5-3.8,4-5.1,5.4
			c-0.8,0.9,1.5,5.2,4,6.4L340,280.8z"/>
		<path fill="#FCFBF7" stroke="#000000" stroke-miterlimit="10" d="M320.8,257.2c2.1,3.2,4.9,5.8,7.1,8.9
			c8.1,11.5,7.3,28.9,18.7,37.2c9.9,7.2,24.8,3.1,33.2-5.8c6.9-7.3,10.7-16.8,13.7-26.5c1-3.2-1.4-6.5-4.8-6.6l-19.9-0.3
			c-1.1-9.7-0.8-19.5,0.8-29.1c1-6.2,2.4-13.2-4.6-17.3c-2.1-1.2-4.5-1.9-7-1.9c-16-0.4-36.6,7.2-42.5,22.5
			C315.5,238.3,317,251.4,320.8,257.2z"/>
		<path fill="none" stroke="#000000" stroke-miterlimit="10" d="M374.2,213.8c-0.8,3.5-2.6,6.8-4.4,9.9"/>
	</g>
</g>
<g id="Layer_1_copy">
	<g>
		<g>
			<path fill="#FCF8E6" d="M306.6,265.2c-1.5,2.3-13.6,5.3-16.9,8c-3.1,2.6-6,5.5-9.4,7.7c-0.2,0.1-0.1,0.4,0.1,0.4
				c3.6,0.2,7.2-0.1,10.6-1.1l26.2-3L306.6,265.2z"/>
			<path d="M282.5,281.8c-0.7,0-1.4,0-2.1-0.1c-0.3,0-0.5-0.2-0.6-0.5c-0.1-0.3,0-0.6,0.3-0.7c2.3-1.5,4.4-3.4,6.4-5.2
				c0.9-0.8,1.9-1.7,2.9-2.5c1.6-1.4,5.3-2.7,8.8-4.1c3.6-1.3,7.3-2.7,8-3.8l0.3-0.4l11.5,13.1l-26.9,3.1
				C288.3,281.4,285.4,281.8,282.5,281.8z M281,281c3.4,0.2,6.7-0.2,9.9-1.1l0.1,0l25.4-2.9l-9.8-11.1c-1.2,1.2-4.4,2.4-8,3.8
				c-3.5,1.3-7.1,2.7-8.6,3.9c-1,0.8-2,1.7-2.9,2.5C285.1,277.7,283.2,279.5,281,281z"/>
		</g>
		<g>
			<path fill="#FCF8E6" d="M309.4,264.5c-3.9,6.4-12.3,6.7-16.2,8.2c-1,0.4-4.3,2.2-4.3,2.2s-1,2.5-1,4.5c5.3,0.9,14.3,0.8,19.6,1.7
				c-3.2,5.3-14.8,10.4-20.6,12.3c-1,0.3-0.9,1.8,0.1,2c2.2,0.4,8.1,0.8,10.3,0.5c10.8-1.7,14.2-8.4,24.5-10.8L309.4,264.5z"/>
			<path d="M295.2,296.3c-2.7,0-6.5-0.3-8.1-0.6c-0.7-0.1-1.1-0.6-1.2-1.3c-0.1-0.7,0.3-1.3,1-1.5c2.8-0.9,7.2-2.7,11.2-4.9
				c4.3-2.3,7.3-4.6,8.8-6.7c-2.6-0.4-5.9-0.6-9.1-0.7c-3.5-0.2-7.2-0.4-9.9-0.8l-0.3-0.1l0-0.3c-0.1-2,0.9-4.6,1-4.7l0.1-0.1
				l0.1-0.1c0.1-0.1,3.4-1.9,4.4-2.2c1-0.4,2.1-0.6,3.5-1c4.3-1,9.6-2.3,12.5-7l0.4-0.6l13.2,21.6l-0.6,0.1
				c-4.9,1.1-8.2,3.2-11.5,5.3c-3.6,2.3-7.4,4.6-13.1,5.5C296.9,296.3,296.1,296.3,295.2,296.3z M288.3,279c2.6,0.4,6.1,0.6,9.4,0.8
				c3.5,0.2,7.2,0.4,9.9,0.8l0.6,0.1l-0.3,0.5c-1.4,2.4-4.6,4.9-9.4,7.5c-5.1,2.8-10,4.5-11.4,4.9c-0.3,0.1-0.4,0.4-0.4,0.6
				c0,0.2,0.2,0.5,0.5,0.6c2.1,0.4,8,0.8,10.2,0.5c5.6-0.9,9.1-3.1,12.8-5.4c3.2-2,6.5-4.1,11.2-5.2l-11.9-19.5
				c-3.1,4.5-8.6,5.9-12.7,6.9c-1.3,0.3-2.5,0.6-3.4,0.9c-0.8,0.3-3.5,1.8-4.2,2.1C289,275.7,288.4,277.5,288.3,279z"/>
		</g>
		<g>
			<path fill="#FCFBF7" d="M314.5,278.3l14.6-2.7c0.6-1.1,0.3-2.4-0.3-3.5s-4.5-4-5.2-5.1c-1.3-2.1,0.6-4.6,0.2-7
				c-5.3-2.4-12.1-0.9-15.7,3.6c-0.3,0.4-1,1.1-1.4,1.5c-0.2,0.2,0.4,1.4,1.1,1.7L314.5,278.3z"/>
			<path d="M314.2,278.8l-6.8-11.6c-0.6-0.3-1.1-1.1-1.2-1.7c-0.1-0.3,0-0.5,0.1-0.6c0.1-0.1,0.3-0.3,0.4-0.4c0.3-0.3,0.7-0.8,0.9-1
				c3.8-4.7,10.8-6.3,16.2-3.8l0.2,0.1l0,0.2c0.2,1.1-0.1,2.2-0.3,3.3c-0.3,1.3-0.6,2.6,0.1,3.6c0.3,0.4,1.3,1.4,2.4,2.3
				c1.3,1.1,2.5,2.2,2.8,2.8c0.7,1.4,0.8,2.9,0.3,3.9l-0.1,0.2L314.2,278.8z M307,265.3c0.1,0.3,0.5,1,0.9,1.2l0.1,0.1l6.6,11.3
				l14.2-2.6c0.3-0.8,0.2-1.9-0.4-3c-0.3-0.5-1.5-1.6-2.7-2.6c-1.2-1-2.2-1.9-2.5-2.5c-0.8-1.3-0.5-2.8-0.2-4.3
				c0.2-0.9,0.4-1.8,0.3-2.7c-5.1-2.2-11.5-0.7-15,3.6c-0.2,0.3-0.6,0.7-1,1.1C307.3,265.1,307.1,265.2,307,265.3z"/>
		</g>
		<g>
			<path fill="#FCFBF7" d="M309.2,271.8c0.6,0.9,1.3,1.6,1.9,2.4c2.2,3.1,2,7.9,5.1,10.2c2.7,2,6.8,0.8,9.1-1.6
				c1.9-2,2.9-4.6,3.7-7.3c0.3-0.9-0.4-1.8-1.3-1.8l-5.4-0.1c-0.3-2.6-0.2-5.3,0.2-7.9c0.3-1.7,0.7-3.6-1.3-4.7
				c-0.6-0.3-1.2-0.5-1.9-0.5c-4.4-0.1-10,2-11.6,6.2C307.8,266.7,308.2,270.3,309.2,271.8z"/>
			<path d="M319.6,285.9c-1.4,0-2.6-0.4-3.6-1.1c-1.9-1.4-2.6-3.7-3.3-5.9c-0.5-1.5-1-3.1-1.9-4.4c-0.3-0.4-0.6-0.7-0.9-1.1
				c-0.4-0.4-0.7-0.9-1.1-1.3c-1.1-1.6-1.5-5.2-1.5-5.3l0-0.1l0-0.1c1.7-4.3,7.4-6.5,12-6.4c0.8,0,1.5,0.2,2.1,0.6
				c2.1,1.2,1.8,3.3,1.5,5l0,0.2c-0.4,2.5-0.5,5-0.2,7.5l5.1,0.1c0.6,0,1.1,0.3,1.4,0.7c0.3,0.5,0.4,1,0.3,1.6
				c-0.8,2.6-1.8,5.3-3.8,7.4C323.8,285,321.6,285.9,319.6,285.9z M308.2,266.7c0.1,0.6,0.5,3.5,1.4,4.9l0,0c0.3,0.4,0.6,0.8,1,1.3
				c0.3,0.4,0.6,0.8,0.9,1.2c1,1.4,1.5,3,2,4.6c0.7,2.2,1.3,4.2,3,5.5c2.6,1.9,6.5,0.7,8.6-1.5c1.9-2,2.9-4.6,3.6-7.1
				c0.1-0.3,0-0.6-0.1-0.9c-0.2-0.3-0.5-0.4-0.8-0.4l-5.8-0.1l0-0.4c-0.3-2.7-0.2-5.4,0.2-8.1l0-0.2c0.3-1.6,0.5-3.2-1.1-4.1
				c-0.5-0.3-1.1-0.5-1.7-0.5C315.1,260.8,309.8,262.8,308.2,266.7z"/>
		</g>
		<path d="M323,262.9l-0.7-0.4l0,0c0.5-0.8,0.9-1.7,1.1-2.6l0.8,0.2C324,261.1,323.5,262,323,262.9L323,262.9z"/>
	</g>
</g>
<g id="Layer_3" display="none">
	<g display="inline">
		<path fill="#FCF8E6" stroke="#000000" stroke-miterlimit="10" d="M514.7,256.1c3.3,22.7,6.5,34.4,0,58.1
			c-7.3,26.4-7.3,54.8-0.2,81.3c1.1,4.2,10.9,12.3,12.9,11.4c3.2-1.5,1-47.4,11.3-69.2c4.5-9.6,20.2-18.7,24.3-46.4
			c0.1-1,1.5-1.1,1.9-0.1c13.1,31.8,10.4,40,3,60.7c-11.5,32.1-3.7,47-19.1,69.1c5.3,3.9,14.1-5.4,19.6-9.1s37-53,35.7-90.8
			c-0.5-14.8,12.7-62.8,12.7-62.8L514.7,256.1z"/>
		<path fill="#FCFBF7" stroke="#000000" stroke-miterlimit="10" d="M557.5,179.5C568.1,182,590,196,590,196s5.5-4.8,22.5-5.5
			c19-0.8,12.7,50.8-4.7,73c-2.8,3.6-77.7-0.7-80.5-10.3c-5.2-17.9-4.7-35.2-0.4-53.3C526.9,199.9,549.3,177.5,557.5,179.5z"/>
		<path fill="#FCFBF7" stroke="#000000" stroke-miterlimit="10" d="M533.3,176.2c7.7-1.8,19.7,9.2,25,19.6c3.5-6,10-10.5,14.2-9.8
			c6.1,1.1,19,16,19,16s0,0,8.2-7.5c2.2-2,11.2-2.2,19.8-0.9c8.2,1.3,9.8,34.2,9.2,37.4c-2.4,11.1-14.2,38.2-17.4,42.8
			c-4.7,6.9-94.6-3.2-95.7-11.1c-3.2-23.9-8.5-39-2-62.2C513.8,200.5,525.7,178,533.3,176.2z"/>
	</g>
</g>
<g id="Layer_3_copy">
	<g>
		<g>
			<path fill="#FCF8E6" d="M560.2,292c0.5,3.7,1.1,5.6,0,9.5c-1.2,4.3-1.2,8.9,0,13.3c0.2,0.7,1.8,2,2.1,1.9
				c0.5-0.2,0.2-7.7,1.8-11.3c0.7-1.6,3.3-3.1,4-7.6c0-0.2,0.2-0.2,0.3,0c2.1,5.2,1.7,6.5,0.5,9.9c-1.9,5.2-0.6,7.7-3.1,11.3
				c0.9,0.6,2.3-0.9,3.2-1.5c0.9-0.6,6-8.6,5.8-14.8c-0.1-2.4,2.1-10.2,2.1-10.2L560.2,292z"/>
			<path d="M566.2,319.3c-0.2,0-0.4-0.1-0.6-0.2l-0.2-0.1l0.1-0.2c1.4-2,1.6-3.6,1.8-5.6c0.2-1.6,0.4-3.3,1.2-5.6
				c1.2-3.3,1.6-4.5-0.4-9.5c-0.5,3-1.9,4.7-2.9,5.9c-0.4,0.5-0.8,1-1,1.4c-1,2.2-1.3,6-1.4,8.5c-0.2,2.3-0.2,2.8-0.5,2.9
				c-0.2,0.1-0.4,0-0.5-0.1c-0.6-0.3-1.8-1.3-1.9-2c-1.2-4.4-1.2-9,0-13.4c0.9-3.3,0.6-5.2,0.2-8.1c-0.1-0.4-0.1-0.8-0.2-1.3l0-0.3
				l17.3,0.4l-0.1,0.3c0,0.1-2.1,7.8-2.1,10.2c0.2,6.2-4.9,14.3-5.9,15c-0.2,0.1-0.4,0.3-0.7,0.5
				C567.7,318.7,566.9,319.3,566.2,319.3z M566.1,318.8c0.5,0.1,1.3-0.5,2-1.1c0.2-0.2,0.5-0.4,0.7-0.5c0.7-0.5,5.9-8.4,5.7-14.6
				c-0.1-2.2,1.6-8.5,2-10l-16.1-0.4c0.1,0.4,0.1,0.7,0.2,1c0.4,2.9,0.7,4.8-0.2,8.3c-1.2,4.3-1.2,8.8,0,13.1
				c0.2,0.6,1.4,1.5,1.7,1.7c0.1-0.3,0.2-1.4,0.3-2.5c0.2-2.5,0.4-6.4,1.5-8.6c0.2-0.5,0.6-1,1.1-1.5c1-1.2,2.4-2.9,2.9-6
				c0-0.2,0.2-0.3,0.3-0.3c0.2,0,0.4,0.1,0.4,0.3c2.2,5.3,1.7,6.7,0.5,10.1c-0.8,2.2-1,4-1.2,5.5
				C567.6,315.1,567.4,316.8,566.1,318.8z"/>
		</g>
		<g>
			<path fill="#FCFBF7" d="M567.2,279.5c1.7,0.4,5.3,2.7,5.3,2.7s0.9-0.8,3.7-0.9c3.1-0.1,2.1,8.3-0.8,11.9
				c-0.5,0.6-12.7-0.1-13.1-1.7c-0.8-2.9-0.8-5.7-0.1-8.7C562.2,282.8,565.8,279.2,567.2,279.5z"/>
			<path d="M573.4,293.7c-0.5,0-1.1,0-1.9-0.1c-2.3-0.1-4.8-0.4-6.5-0.7c-2.5-0.5-2.9-1-3-1.3c-0.8-2.8-0.8-5.6-0.1-8.8l0-0.1l0,0
				c0.4-0.4,3.8-3.7,5.2-3.4v0c1.6,0.4,4.5,2.2,5.2,2.6c0.4-0.2,1.4-0.7,3.7-0.8c0.7,0,1.3,0.3,1.7,1c1.2,2.4,0,8.4-2.2,11.2
				C575.5,293.5,575.3,293.7,573.4,293.7z M562.4,283c-0.7,3.1-0.7,5.8,0.1,8.5c0,0,0.1,0.2,0.7,0.4c2.7,1.1,11.3,1.5,12,1.1
				c2.1-2.7,3.3-8.5,2.1-10.7c-0.3-0.5-0.7-0.8-1.2-0.8c-2.6,0.1-3.5,0.8-3.5,0.8l-0.1,0.1l-0.2-0.1c0,0-3.6-2.3-5.2-2.7l0,0
				C566.2,279.6,563.8,281.6,562.4,283z"/>
		</g>
		<g>
			<path fill="#FCFBF7" d="M563.2,279c1.3-0.3,3.2,1.5,4.1,3.2c0.6-1,1.6-1.7,2.3-1.6c1,0.2,3.1,2.6,3.1,2.6s0,0,1.3-1.2
				c0.4-0.3,1.8-0.4,3.2-0.1c1.3,0.2,1.6,5.6,1.5,6.1c-0.4,1.8-2.3,6.2-2.8,7c-0.8,1.1-15.4-0.5-15.6-1.8c-0.5-3.9-1.4-6.4-0.3-10.1
				C560,282.9,562,279.3,563.2,279z"/>
			<path d="M573.5,295.5c-0.8,0-1.7,0-2.9-0.1c-2.9-0.2-6.1-0.7-8.1-1.1c-2.1-0.5-2.4-0.9-2.4-1.2c-0.1-0.8-0.2-1.6-0.4-2.3
				c-0.5-2.7-0.8-4.9,0-8l0,0c0.2-0.4,2-3.8,3.4-4.1l0,0c1.4-0.3,3.2,1.4,4.1,3c0.7-0.9,1.6-1.5,2.3-1.4c0.9,0.2,2.5,1.9,3.1,2.5
				l1.2-1.1c0.5-0.4,2.1-0.4,3.4-0.2c0.3,0,0.5,0.2,0.7,0.5c0.9,1.3,1.1,5.4,1,5.9c-0.4,1.8-2.3,6.3-2.9,7.1
				C575.9,295.4,575,295.5,573.5,295.5z M560.2,283c-0.8,2.9-0.5,5.1,0,7.7c0.1,0.7,0.2,1.5,0.4,2.3c0.1,0.3,1.9,0.9,6.3,1.5
				c4.8,0.6,8.6,0.6,8.9,0.2c0.5-0.8,2.4-5.1,2.8-6.9c0.1-0.4-0.1-4.3-0.9-5.5c-0.1-0.2-0.2-0.3-0.4-0.3c-1.5-0.2-2.8-0.1-3,0.1
				l-1.5,1.4l-0.2-0.2c-0.6-0.7-2.2-2.4-3-2.5c-0.6-0.1-1.5,0.6-2.1,1.5l-0.2,0.4l-0.2-0.4c-0.8-1.6-2.7-3.3-3.8-3.1l0,0
				C563,279.3,561.8,280.1,560.2,283z"/>
		</g>
	</g>
</g>
<g id="Layer_5">
	<g>
		<g opacity="0.53">
			<g>
				<path fill="#999999" d="M430.2,146.3c0.8-4.2,2-8.1,3.6-12.1c-1,2.4-2,4.9-3.1,7.3c1.5-3.3,4.1-6.3,5.4-9.6
					c-3.1,3.8-3.8,4.9-2.4,3c0.5-0.6,1-1.2,1.5-1.8c1.4-1.6,2.9-3,4.5-4.4c-17.4-7.2-34.7-14.4-52.1-21.6c-0.1,12.3-0.3,24.7-0.2,37
					c0.1,15.1,2.2,31.4,10.5,44.5c8.4,13.1,23.7,22.4,39.7,17.6c12.4-3.7,19.1-12.8,24.8-23.6c6.7-12.6,11.8-26,17.2-39.2
					c-1,2.4-2,4.9-3.1,7.3c1.4-3.3,3.1-6.3,4.9-9.4c1.7-2.8-5.1,6.1-0.7,1.4c1.7-1.6,0.7-0.8-3.1,2.4c0.9-0.6,1.8-1.1,2.7-1.5
					c-2.4,1-4.9,2-7.3,3.1c1.9-0.8,3.7-1.3,5.8-1.6c-2.7,0.4-5.4,0.7-8.1,1.1c1-0.1,2-0.1,3,0c-2.7-0.4-5.4-0.7-8.1-1.1
					c0.5,0.1,1,0.2,1.5,0.2c-7.5-9.8-14.9-19.6-22.4-29.4c0.3,6.7-0.1,13.4-1,20.1c0.4-2.7,0.7-5.4,1.1-8.1
					c-3.1,22.7-9.8,45-9.7,68.1c0.1,10.2,5.6,21.6,15.1,26.3c13.4,6.6,28.4,6.9,41.1-1.8c7.2-4.9,12.9-11,18.4-17.8
					c10.1-12.6,18.9-25.9,27.4-39.6c-18.9-5.1-37.9-10.3-56.8-15.4c0.2,16.6,0.4,33.2,0.7,49.9c0.2,11.7-1,24.8,4.9,35.3
					c9.9,17.6,31.9,23.3,49.3,12.7c15.1-9.2,22.7-24.7,32.4-38.6c3.7-5.3-3.2,3.6-0.9,1.1c1.3-1.4,2.6-2.9,4-4.3
					c2.4-2.4,5.1-4.5,7.6-6.7c-6.6,5.9-2.5,2-0.7,0.7c1.4-1,2.8-2,4.2-2.9c3.3-2.2,6.7-4.3,10-6.4c-15.3-8.8-30.6-17.6-45.9-26.3
					c-1.3,17.3-2.6,34.5-4,51.8c-0.5,7.1,3.7,16.8,8.9,21.6c5,4.6,10.7,7.5,17.5,8.4c6.5,0.9,13.8,0,19.4-3.6
					c7.1-4.6,10.9-10.5,14-18.2c4.3-10.5,8.5-21.1,12.9-31.6c-1,2.4-2,4.9-3.1,7.3c0.7-1.6,2.2-3.5,2.5-5.1
					c-3.5,4.2-4.3,5.2-2.2,2.9c-4.6,3.1-5.5,4-2.8,2.5c-2.4,1-4.9,2-7.3,3.1c0.4-0.1,0.7-0.2,1.1-0.4c-2.7,0.4-5.4,0.7-8.1,1.1
					c0.8-0.2,1.6-0.2,2.3-0.1c-2.7-0.4-5.4-0.7-8.1-1.1c0.8,0.1,1.6,0.3,2.3,0.6c-2.4-1-4.9-2-7.3-3.1c1.8,1,1.5,0.6-1.1-1.2
					c-2.4-1.6-4.3-3.6-5.8-6.1c-1-2.4-2-4.9-3.1-7.3c0.1,0.3,0.2,0.7,0.3,1c-0.4-2.7-0.7-5.4-1.1-8.1c0,0.4,0,0.7,0,1.1
					c0.4-2.7,0.7-5.4,1.1-8.1c-0.1,0.4-0.2,0.7-0.3,1.1c-3.9,15.5,5,33.8,21.3,37.5c15.8,3.6,33.4-4.7,37.5-21.3
					c4.2-16.5-3.1-33.1-18-41.3c-15.1-8.4-34.7-5.2-46.5,7.4c-7.8,8.3-11.3,18.4-15.5,28.8c-3.3,8-6.5,16-9.8,24.1
					c20,2.7,39.9,5.4,59.9,8.1c1.3-17.3,2.6-34.5,4-51.8c1.8-23-27.2-38.1-45.9-26.3c-14,8.8-28.5,18.2-39,31.2
					c-5.6,6.9-10.2,14.2-14.9,21.6c-0.8,1.3-1.7,2.5-2.6,3.8c-3.1,4.8,5-5.4,1.1-1.4c-1,1.1-2.1,2.2-3.1,3.3c-2.3,2-1.4,1.4,2.7-1.9
					c-0.9,0.7-1.9,1.2-2.9,1.6c2.4-1,4.9-2,7.3-3.1c-0.5,0.1-1,0.2-1.6,0.3c5.4,0,10.8,0,16.2,0c-0.5-0.1-1-0.2-1.5-0.3
					c2.4,1,4.9,2,7.3,3.1c-0.3-0.2-0.7-0.5-1-0.7c3.6,3.6,7.3,7.3,10.9,10.9c-0.6-0.6-1-1.3-1.2-2.1c1,2.4,2,4.9,3.1,7.3
					c-0.1-0.4-0.2-0.9-0.3-1.3c0.4,2.7,0.7,5.4,1.1,8.1c-1.3-11-0.5-22.5-0.6-33.6c-0.2-11.6-0.3-23.3-0.5-34.9
					c-0.2-12.9-9.3-26.4-22.4-29.4c-13.5-3.1-27.1,2.1-34.4,14c-5.4,8.6-10.8,17.3-16.7,25.5c-0.7,1-1.4,1.9-2.1,2.9
					c-2.4,3.3,0.9-0.9,1.5-1.9c-1.1,2-3.1,3.8-4.6,5.5c-1.7,2-3.5,4-5.4,5.8c-0.8,0.8-3.7,3.2,0.2,0c3.9-3.1,0.5-0.7-0.7-0.2
					c2.4-1,4.9-2,7.3-3.1c-0.9,0.3-1.7,0.5-2.6,0.6c2.7-0.4,5.4-0.7,8.1-1.1c-0.4,0-0.9,0-1.3,0c2.7,0.4,5.4,0.7,8.1,1.1
					c-0.4-0.1-0.9-0.2-1.3-0.3c2.4,1,4.9,2,7.3,3.1c-0.4-0.2-0.8-0.4-1.2-0.6c5,8.8,10.1,17.6,15.1,26.3c0-6.1,0.5-12.2,1.3-18.3
					c-0.4,2.7-0.7,5.4-1.1,8.1c3.3-23.2,10.4-46.2,9.4-69.9c-0.3-6.9-2.3-13-6.5-18.5c-3.7-4.8-9.6-9.9-15.8-10.9
					c-8.9-1.5-17.9-2-26.5,1.3c-8.3,3.2-16,7.7-21.9,14.5c-9.5,11.2-13.8,24.3-19.3,37.7c1-2.4,2-4.9,3.1-7.3
					c-2,4.8-4.2,9.5-6.5,14.2c-1.1,2.2-2.2,4.4-3.4,6.5c-0.6,1.1-1.2,2.2-1.8,3.2c-0.3,0.5-0.6,1.1-0.9,1.6
					c-1.3,2.2-0.5,1.1,2.3-3.1c4.5-2.6,9-5.2,13.5-7.8c-0.4,0.1-0.8,0.2-1.2,0.3c5.4,0,10.8,0,16.2,0c-0.4-0.1-0.8-0.2-1.2-0.3
					c2.4,1,4.9,2,7.3,3.1c1.3,1,2.7,2.1,4,3.1c3,4.1,3.9,5.1,2.6,3c-0.5-1.2-1.2-2.4-1.8-3.6c1,2.4,2,4.9,3.1,7.3
					c-1.4-3.6-2.3-7.1-2.9-10.9c0.4,2.7,0.7,5.4,1.1,8.1c-2.2-16.4-0.7-33.6-0.6-50.2C449,95,441.1,84,430.1,79.3
					c-11.7-4.9-24-2-33.3,6.3c-12.7,11.3-22.2,27.7-25.4,44.4c-1.6,8.2-1.2,16.1,3.1,23.5c3.7,6.3,11,12.4,18.2,14
					C407.7,171,427,163.1,430.2,146.3L430.2,146.3z"/>
			</g>
		</g>
		<g opacity="0.6">
			<g>
				<path fill="#E6E6E6" d="M469.2,141.9c2.7-1.3,5.4-2.5,8.2-3.7c-2.6,1.1-5.2,2.2-7.7,3.3c11.7-4.8,23.8-8,36.2-9.8
					c-2.9,0.4-5.7,0.8-8.6,1.2c9.5-1.2,19-1.6,28.6-1.1c-7.6-18.5-15.3-36.9-22.9-55.4c-2.9,2.7-5.8,5.3-8.9,7.7
					c2.2-1.7,4.4-3.4,6.6-5.1c-8.5,6.5-17.7,11.9-27.6,16.1c2.6-1.1,5.2-2.2,7.7-3.3c-2.6,1.1-5.2,2-7.9,2.9
					c-13.1,4.5-24.5,16.5-23.8,31.3c0.3,5.8,1.7,11.3,4.4,16.4c4.1,7.7,11.6,11.9,19.4,14.9c28.8,11.1,60.1,5.3,90,9.3
					c-2.9-0.4-5.7-0.8-8.6-1.2c2.3,0.3,4.6,0.7,6.9,1.2c0-20.8,0-41.7,0-62.5c-42.1,11.7-84.2,23.5-126.3,35.2
					c-13.2,3.7-24.4,17.1-23.8,31.3c0.6,13.6,9.5,28.4,23.8,31.3c16.7,3.4,33.7,5.8,50.6,7.3c7.1,0.6,14.1,1,21.2,1.2
					c3.9,0.1,7.7,0.2,11.6,0.1c6.4-0.1,12.8-0.9,18.3-4.4c5.4-3.5,8.6-7.7,12.5-12.8c-1.7,2.2-3.4,4.4-5.1,6.6c0.9-1.1,1.9-2,3-2.9
					c-2.2,1.7-4.4,3.4-6.6,5.1c2.3-1.7,4.6-3.1,7.3-4.2c-2.6,1.1-5.2,2.2-7.7,3.3c8.6-3.3,18-4.3,27.1-5.5c-2.9,0.4-5.7,0.8-8.6,1.2
					c5.8-0.8,12.3-2.3,18.1-1.8c-5.5-1.5-10.9-3-16.4-4.4c0.4,0.2,0.8,0.3,1.1,0.5c-2.2-1.7-4.4-3.4-6.6-5.1
					c0.3,0.3,0.5,0.6,0.8,0.8c-2.8-4.8-5.6-9.5-8.3-14.3c0.1,0.4,0.3,0.7,0.4,1.1c-0.4-2.9-0.8-5.7-1.2-8.6c0.1,0.8,0.1,1.6,0,2.4
					c0.4-2.9,0.8-5.7,1.2-8.6c-0.4,1.4-0.8,2.7-1.4,4c1.1-2.6,2.2-5.2,3.3-7.7c-0.9,1.8-1.9,3.5-3.1,5.1c1.7-2.2,3.4-4.4,5.1-6.6
					c-1.6,2-3.3,3.7-5.3,5.2c2.2-1.7,4.4-3.4,6.6-5.1c-0.4,0.3-0.8,0.6-1.2,0.8c-9.6,6.6-16.1,15.9-16.1,28c0,11,6.1,22.8,16.1,28
					c11.2,5.8,21.5,6.8,33.8,4.6c7.6-1.4,15.6-8.5,19.4-14.9c4.1-7,5.8-17.2,3.3-25c-2.5-7.8-7.4-15.4-14.9-19.4
					c-8.1-4.3-16-4.9-25-3.3c-0.5,0.1-1,0.2-1.5,0.3c2.9-0.4,5.7-0.8,8.6-1.2c-1,0.1-2,0.1-3-0.1c2.9,0.4,5.7,0.8,8.6,1.2
					c-1-0.2-2-0.4-2.9-0.8c2.6,1.1,5.2,2.2,7.7,3.3c-0.4-0.2-0.9-0.5-1.3-0.7c0,18.7,0,37.3,0,56c14.6-10,26.2-24.9,27.1-43.2
					c0.7-13.3-6.5-25.7-17.8-32.6c-9.2-5.6-18.4-4.9-28.3-3.7c-12,1.4-24.6,2.5-36.4,5.5c-6.1,1.6-12.3,4-17.7,7.1
					c-8,4.6-13.4,10.8-18.9,18c9.3-5.4,18.7-10.7,28-16.1c-17.4,0.1-34.8-0.9-52-3.2c2.9,0.4,5.7,0.8,8.6,1.2
					c-8.3-1.1-16.5-2.5-24.7-4.2c0,20.8,0,41.7,0,62.5c42.1-11.7,84.2-23.5,126.3-35.2c13.2-3.7,24.4-17.1,23.8-31.3
					c-0.6-13.6-9.5-28.4-23.8-31.3c-13.8-2.8-27.8-3.8-41.8-3.9c-11.7-0.1-23.4,0-35-1.5c2.9,0.4,5.7,0.8,8.6,1.2
					c-6.9-1-13.6-2.6-20.1-5.1c0,20.8,0,41.7,0,62.5c22-7.5,41.7-19.1,58.7-35.1c9.5-8.9,11.6-23.8,6.7-35.4
					c-5.2-12.3-16.5-19.2-29.6-19.9c-31.1-1.7-61.5,5.5-89.4,19c-7,3.4-12.9,12.1-14.9,19.4c-2.1,7.8-1.2,18.1,3.3,25
					C435,146,452.8,149.8,469.2,141.9L469.2,141.9z"/>
			</g>
		</g>
		<path fill="none" stroke="#000000" stroke-width="2" stroke-miterlimit="10" d="M396,141.2c-5.4-10.6-6.9-23.9-0.8-34
			c6.1-10.2,21.3-14.8,30.5-7.3c1.4-10.1,7.1-20.1,16.4-24.4s25.4-7.5,29.6,1.7c3.4-9.8,17.3-13.5,29.3-13.5
			c8.1,0,28.6,8.8,29.9,17.9c7.2-8,34.3-22.7,45.3-11.7c7.9,7.9,11.1,20.4,6.5,30.5c12-7.1,52.4,13,52.4,47.8
			c0,27.5-38.8,49.3-47.6,43.8c1.2,5.5-5.5,22-30.4,22c-21.4,0-27.1-6.8-35.3-15c0,7.9-6.7,32.6-44,32.6
			c-15.2,0-23.6-17.4-28.9-31.6c-8.2,3.2-32.2,16-49.7-1.4c-7.9-7.9-7.3-20.9-4.8-31.8C383.2,162.3,396,141.2,396,141.2z"/>
		<path fill="none" stroke="#000000" stroke-width="2" stroke-miterlimit="10" d="M456.6,175.4c-0.5,5,2.8,9.9,7.2,12.5
			c4.4,2.6,9.6,3.3,14.6,3.4"/>
		<path fill="none" stroke="#000000" stroke-width="2" stroke-miterlimit="10" d="M564.6,147.7c-1.4,6.8-6,12.9-12.3,16"/>
		<path fill="none" stroke="#000000" stroke-width="2" stroke-miterlimit="10" d="M481.1,93.9c-8,6.1-12.6,16.5-11.6,26.5"/>
		<path fill="none" stroke="#000000" stroke-width="2" stroke-miterlimit="10" d="M404.6,190.5c2.6,5.1,7.6,8.9,13.2,10.1"/>
	</g>
</g>
</svg>
