<?xml version="1.0" encoding="utf-8"?>
<!-- Generator: Adobe Illustrator 19.1.0, SVG Export Plug-In . SVG Version: 6.00 Build 0)  -->
<svg version="1.1" id="Layer_1" xmlns="http://www.w3.org/2000/svg" xmlns:xlink="http://www.w3.org/1999/xlink" x="0px" y="0px"
	 viewBox="0 0 228.5 158" enable-background="new 0 0 228.5 158" xml:space="preserve">
<g display="none">
	<g display="inline">
		<g>
			<path fill="#F7F484" d="M10.7,285.5c2.6-5,5.2-10.1,7.8-15.1c2.9-5.7-5.7-10.8-8.6-5c-2.6,5-5.2,10.1-7.8,15.1
				C-0.8,286.1,7.8,291.2,10.7,285.5L10.7,285.5z"/>
		</g>
	</g>
	<g display="inline">
		<g>
			<path fill="#F7F484" d="M29.9,294c1.5-2.4,3.7-5,5.9-6.6c2.1-1.6,3.3-4.3,1.8-6.8c-1.2-2.1-4.7-3.5-6.8-1.8
				c-3.8,2.9-6.9,6.2-9.5,10.2c-1.4,2.3-0.5,5.5,1.8,6.8C25.4,297.2,28.4,296.3,29.9,294L29.9,294z"/>
		</g>
	</g>
	<g display="inline">
		<g>
			<path fill="#F7F484" d="M33.2,309.1c10.7-1.2,20.8-4.2,30.4-9.2c5.7-3,0.6-11.6-5-8.6c-7.9,4.2-16.4,6.9-25.4,7.8
				C26.9,299.7,26.8,309.7,33.2,309.1L33.2,309.1z"/>
		</g>
	</g>
	<g display="inline">
		<g>
			<path fill="#F7F484" d="M79.8,426.6c6.5,0.6,13,0.1,19.3-1.4c6.3-1.4,3.6-11-2.7-9.6c-5.5,1.2-11,1.5-16.7,1
				C73.4,416,73.5,426,79.8,426.6L79.8,426.6z"/>
		</g>
	</g>
	<g display="inline">
		<g>
			<path fill="#F7F484" d="M73.8,440.6c6.5,0.3,12.8,1.7,18.7,4.3c5.8,2.6,10.9-6,5-8.6c-7.6-3.4-15.4-5.3-23.7-5.7
				C67.4,430.3,67.4,440.3,73.8,440.6L73.8,440.6z"/>
		</g>
	</g>
	<g display="inline">
		<g>
			<path fill="#F7F484" d="M67.6,451.2c4.1,3.7,8.5,7,13,10.1c5.4,3.6,10.4-5.1,5-8.6c-3.9-2.6-7.5-5.4-11-8.5
				C69.9,439.9,62.8,446.9,67.6,451.2L67.6,451.2z"/>
		</g>
	</g>
	<g display="inline">
		<g>
			<path fill="#F7F484" d="M-94.9,434.6c-8.2,2.3-15.8,6-22.6,11.3c-5,3.9,0,12.6,5,8.6c6.1-4.7,12.8-8.2,20.2-10.2
				C-86,442.5-88.7,432.9-94.9,434.6L-94.9,434.6z"/>
		</g>
	</g>
	<g display="inline">
		<g>
			<path fill="#F7F484" d="M-114.2,419.3c-6.9,0-13.8,0-20.7,0c-6.4,0-6.4,10,0,10c6.9,0,13.8,0,20.7,0
				C-107.7,429.3-107.7,419.3-114.2,419.3L-114.2,419.3z"/>
		</g>
	</g>
	<g display="inline">
		<g>
			<path fill="#F7F484" d="M-104.8,390.6c-6.9,0.3-13.8,0.1-20.7-0.5c-6.4-0.6-6.4,9.4,0,10c6.9,0.7,13.8,0.8,20.7,0.5
				C-98.4,400.3-98.4,390.3-104.8,390.6L-104.8,390.6z"/>
		</g>
	</g>
</g>
<g display="none" opacity="0.39">
	<g display="inline">
		<path fill="#D861DB" d="M-66.8,361c24.5-8.9,49.3-17.6,75.3-21.3c-2.5,0.3-5,0.7-7.5,1c2.5-0.3,4.9-0.6,7.4-0.9
			c-6.6-16-13.2-31.9-19.8-47.9c-12.6,12.8-25.9,24.9-39.9,36.2c-0.5,0.4-5.5,4.6-5.6,4.5c3.1-2.4,3.8-2.9,2.1-1.6
			c-0.7,0.5-1.4,1.1-2.1,1.6c-3.8,2.9-7.7,5.7-11.6,8.5c-7.3,5.2-14.8,10.2-22.4,14.9c-10.2,6.4-16.8,19.7-12.9,31.7
			c3.7,11.4,14.4,21.2,27,20.6c13.4-0.7,26.6-3.1,39.9-5c11.5-1.6,22.9-3.3,34.4-4.9c22.9-3.3,45.8-6.6,68.7-9.8
			c-5-18-9.9-36.1-14.9-54.1c-27.5,9.7-52,24.6-75.5,41.6c-22,16-43.3,33.1-66.8,47.1c-10.3,6.1-16.7,19.9-12.9,31.7
			c1.5,4.6,3.9,8.8,7.2,12.4c4.2,4.5,13.5,9.1,19.8,8.2c30-4,60.3-7.8,90.5-3.9c-2.5-0.3-5-0.7-7.5-1c5,0.7,9.9,1.6,14.8,2.7
			c-5.6-13.7-11.2-27.5-16.8-41.2c-0.5,0.9-1.1,1.8-1.7,2.6c2.9-3.6,3.4-4.2,1.5-2c-1.5,1.5-2.8,3-4.4,4.4
			c-10.9,9.9-10.8,29.8,0,39.7c11.6,10.7,28,10.5,39.7,0c5.2-4.7,9.7-10.5,13.4-16.5c9.2-14.9,0.7-37.2-16.8-41.2
			c-37.5-8.5-75.1-4.8-112.8,0.2c4.7,17.4,9.4,34.8,14.2,52.3c23-13.7,43.9-30.4,65.5-46.1c10.6-7.7,21.4-15.2,32.7-22
			c5.6-3.3,11.3-6.5,17.2-9.3c1.5-0.7,2.9-1.4,4.4-2.1c0.9-0.4,6.5-2.8,1.9-0.9c-4.6,1.9,1-0.4,2-0.7c1.8-0.7,3.6-1.3,5.4-2
			c13.8-4.9,24.5-19.4,19.6-34.5c-2.2-6.8-6.4-13.3-12.9-16.8c-7.1-3.8-13.7-4-21.6-2.8C10,340.2-31.2,346.4-72.5,352
			c2.5-0.3,5-0.7,7.5-1c-3.9,0.5-7.8,0.9-11.8,1.1c4.7,17.4,9.4,34.8,14.2,52.3c32.9-20.7,63.6-45.1,90.9-72.8
			c8-8.1,10.2-20.3,5.8-30.6c-4-9.4-14.7-18.4-25.6-17.2c-31.4,3.2-60.7,12.5-90.2,23.2c-7,2.5-12.9,6.3-16.8,12.9
			c-3.5,6-5,14.9-2.8,21.6C-97,354.9-81.6,366.4-66.8,361L-66.8,361z"/>
	</g>
</g>
<g opacity="0.24">
	<g>
		<path fill="#D861DB" d="M-40.6,374.4c11.4-1.2,24-2.9,35.4-1.4c-2.6-0.4-5.3-0.7-7.9-1.1c0.8,0.1,1.6,0.4,2.3,0.8
			c-2.4-1-4.7-2-7.1-3c-1.5-1.1-2.9-2.1-4.4-3.2c-2.5-4.4-5.1-8.7-7.6-13.1c0.1,0.4,0.2,0.7,0.3,1.1c-0.4-2.6-0.7-5.3-1.1-7.9
			c0,0.4-0.1,0.8-0.1,1.3c1.4-5,2.7-10,4.1-15c-1.6,3.7,2.2-3.1,2.5-2.8c0.1,0.1-2.8,2.6-3.2,2.9c-0.7,0.7-4,3.3-0.3,0.4
			c4.1-3.1-0.6,0.4-1.2,0.8c-4.3,3-8.7,5.7-13.2,8.5c-10.8,6.6-17.7,20.9-13.7,33.6c4.3,13.3,15,20.5,28.6,21.8
			c9.3,0.9,18.7-0.6,28,0.5c-2.6-0.4-5.3-0.7-7.9-1.1c2.3,0.4,4.5,0.9,6.7,1.7C-2.6,381.1-5,363-7.3,344.9
			c-14.5,10.5-30.4,18.8-46.9,25.8c2.4-1,4.7-2,7.1-3c-1.1,0.5-2.2,0.9-3.3,1.4c-6.2,2.5-11.2,5.2-15.4,10.6c-3.9,5-6.7,11.5-6.4,18
			c0.6,12.3,8.7,26.2,21.8,28.6c15.4,2.8,30.8,4.1,46.4,2.2c-9.9-9.9-19.8-19.8-29.7-29.7c0,0.3-0.1,0.6-0.1,0.9
			c1.4-5,2.7-10,4.1-15c-0.2,0.3-0.4,0.5-0.5,0.8c18.1,2.4,36.2,4.7,54.3,7.1c-0.1-0.2-0.1-0.4-0.2-0.6c-1,7.6-2,15.3-3,22.9
			c0.1-0.2,0.3-0.4,0.4-0.6c-5.9,4.6-11.8,9.1-17.8,13.7c0.2,0,0.5-0.1,0.7-0.1c-5.3,0-10.5,0-15.8,0c6.1,1.2,12.2,3.1,18.2,4.6
			c-2.4-1-4.7-2-7.1-3c0.3,0.2,0.6,0.3,0.9,0.5c-4.9-8.6-9.8-17.1-14.7-25.7c0,0.3,0.1,0.6,0.1,0.9c1.4-5,2.7-10,4.1-15
			c-1.8,3.4,4.1-4.6,1.6-1.9c-0.7,0.8-1.4,1.6-2.1,2.4c-1.8,2-3.8,3.9-5.8,5.7c-0.8,0.7-3.9,3.2-0.1,0.3c4-3.1,0-0.1-0.9,0.6
			c-2.2,1.5-4.6,2.9-7,4.2c-11.1,6-17.6,21.4-13.7,33.6c4.3,13.3,15,20.6,28.6,21.8c3.9,0.3,7.9,0.7,11.8,1c7.2,0.6,16.1-3.8,21-8.7
			c5.2-5.2,9-13.6,8.7-21c-0.8-17.3-13.1-28.2-29.7-29.7c-3.9-0.3-7.9-0.7-11.8-1c5,18.5,10,36.9,15,55.4
			c19-10.2,45.2-32.1,38.5-56.3c-3.2-11.7-13-19-24.3-21.9c-3.8-1-7.6-1.9-11.3-2.9c-9.4-2.4-19.1-3-27.8,2.1
			c-11.6,6.8-18.1,21.7-13.9,34.7c3.7,11.4,12.7,19.7,24.7,21.3c12.2,1.6,22.8-4.1,29.6-14.2c3.6-5.4,4-10.5,4.7-16.7
			c1.5-14.7-14.9-31.5-29.7-29.7c-10.3,1.3-20.6,1.3-30.9,0.1c2.6,0.4,5.3,0.7,7.9,1.1c-2.6-0.3-5.1-0.8-7.6-1.2
			c0,19.1,0,38.2,0,57.3c20.1-8.2,39.6-17.4,57.3-30.2c9.9-7.2,15.9-16.9,14.2-29.6c-1.6-12.1-9.9-20.8-21.3-24.7
			c-14-4.8-28.3-2-42.6-3.3c5,18.5,10,36.9,15,55.4c20.8-12.8,50.2-31,38-59.9c-11-26.1-43.6-21.5-66.5-19.1
			c-8.1,0.8-15.1,2.8-21,8.7c-5.2,5.2-9,13.6-8.7,21C-69.6,359.4-57.1,376.1-40.6,374.4L-40.6,374.4z"/>
	</g>
</g>
<g opacity="0.39">
	<g>
		<path fill="#D861DB" d="M-54.5,356.2c1.5-0.6,3.1-1.5,4.7-1.8c-1.5-0.4-2.9-0.8-4.4-1.2c0.1,0.2,0.3,0.3,0.4,0.5
			c-0.4-1.1-0.9-2.1-1.3-3.2c-0.1,3.1-1.8,6.1-1,9.2c0.3,1.1,0.7,1.9,1.5,2.7c0.3,0.3,2.9,2.4,1.8,1.1c-0.4-1.1-0.9-2.1-1.3-3.2
			c0.1-1.7-1.4,1.5-1.4,1.5c-1.2,2.3-0.4,4.7,1.6,6.2c0.9,0.6,2.2,0.6,3,1.2c-0.7-1.3-1.5-2.6-2.2-3.9c0.2,1.6-2.1,5.4-2.7,6.9
			c-1.2,3,1.8,5.5,4.4,5.7c1.1,0.1,2.1,0.2,3.2,0.4c-0.9-0.7-1.8-1.4-2.7-2.1c-1-2.1-1.2,1.6-1.4,2.3c-1.5,5.6,7.2,8,8.7,2.4
			c0.7-2.8,2.2-6.3,0.6-9c-1.7-3-5.3-2.7-8.4-3c1.5,1.9,2.9,3.8,4.4,5.7c1.2-3,3.7-6.6,3-9.9c-0.7-3.4-2.9-2.9-5.1-4.5
			c0.5,2.1,1.1,4.1,1.6,6.2c2.1-4,4.1-6.2,0.4-10.1c-1.7-1.8-2,0.8,0.3,0.2c0.3-0.1,0.8-4.3,0.8-4.5c0.2-2.2-0.2-3.3-1.6-5
			c-1-1.3-2.9-1.4-4.4-1.2c-1.6,0.3-3.2,1.2-4.7,1.8C-62.2,349.7-59.9,358.5-54.5,356.2L-54.5,356.2z"/>
	</g>
</g>
<g opacity="0.39">
	<g>
		<path fill="#D861DB" d="M-33.2,418.5c0.2,0.2,0.3,0.5,0.5,0.7c-0.2-1.2-0.3-2.3-0.5-3.5c-0.3,1.5-1.8,2.6-2,4.3
			c-0.3,1.5-0.1,3.3,1.2,4.4c6,4.9,13.4-1.9,18.9-5c-2.1-2.1-4.1-4.1-6.2-6.2c-2.3,5.2-4,10.5-4.9,16.1c-0.7,4.1,4.2,7.9,7.5,4.4
			c6.8-7.2,14.1-13.8,21.9-19.9c-2.5-0.7-5-1.3-7.5-2c0.6,2.2-1.4,7-1.9,9.2c-0.7,3.1-1.5,6.3-2.3,9.4c-1.2,4.6,4.2,7.2,7.5,4.4
			c1.9-1.6,3.4-3.3,4.9-5.4c3.4-4.7-4.4-9.2-7.8-4.6c-1,1.4-2.1,2.4-3.4,3.5c2.5,1.5,5,2.9,7.5,4.4c1.1-4.4,2.2-8.7,3.2-13.2
			c0.7-3.4,1.9-6.9,1.1-10.3c-0.9-3.6-5-4-7.5-2c-7.8,6.1-15.1,12.7-21.9,19.9c2.5,1.5,5,2.9,7.5,4.4c0.8-4.8,2.1-9.5,4-13.9
			c1.7-3.9-1.9-8.6-6.2-6.2c-2.6,1.4-7.4,5.6-10.3,5.7c1.1,0.4,2.1,0.9,3.2,1.3c-0.3-0.2-0.5-0.4-0.8-0.7c0.4,1.5,0.8,2.9,1.2,4.4
			c0.2-1.3,1.6-2.4,2-3.8c0.4-1.7,0.2-3.2-0.8-4.6C-28.8,409.3-36.6,413.8-33.2,418.5L-33.2,418.5z"/>
	</g>
</g>
<g display="none" opacity="0.39">
	<g display="inline">
		<path fill="#D861DB" d="M12,440.4c2-4,4.4-7.5,7.4-10.7c-2.2-0.9-4.3-1.8-6.5-2.7c0.1,2,0,3.7-0.5,5.6c-0.9,3.7,3.6,6.3,6.3,3.7
			c3.9-3.8,5.8-9,9.5-13c-2.1-0.6-4.2-1.1-6.3-1.7c0.5,3.6-1.7,9.2,1.5,11.9c2.7,2.3,6.3,0.6,7.3-2.4c1.6-4.6-5.7-6.6-7.3-2
			c-0.1,0.2-0.1,0.3-0.2,0.5c0.9-0.9,1.8-1.8,2.6-2.6c-0.2,0.1-0.4,0.1-0.6,0.2c1,0.1,1.9,0.3,2.9,0.4c-0.2-0.1-0.4-0.2-0.6-0.3
			c0.6,0.8,1.2,1.5,1.7,2.3c-0.4-1.3,0.3-3.5,0.3-4.9c0-1.7-0.2-3.3-0.5-5c-0.4-2.8-4.6-3.6-6.3-1.7c-3.7,4-5.6,9.3-9.5,13
			c2.1,1.2,4.2,2.5,6.3,3.7c0.6-2.5,0.9-5,0.8-7.6c-0.1-3.1-4.1-5.2-6.5-2.7c-3.5,3.7-6.4,7.7-8.6,12.3
			C3.3,440.9,9.9,444.8,12,440.4L12,440.4z"/>
	</g>
</g>
<g display="none" opacity="0.39">
	<g display="inline">
		<path fill="#D861DB" d="M-12.9,391c1.5-1.7,3.1-3.4,4.7-5.1c1.4-1.4,3.9-4.7,5.7-5.3c1.3-0.4,0.4,0.3-0.3,1.5
			c-0.6,1.1-1.4,2.1-2,3.1c-1.5,2.3-3,4.7-4.6,7c-0.6,0.9,0.6,2.2,1.6,1.6c7.1-4.9,13.9-10.3,20.6-15.6c1.1-0.9-0.5-2.5-1.6-1.6
			c-7.6,6-12.2,14.5-18.4,21.8c-0.9,1.1,0.5,2.6,1.6,1.6c5-4.8,10.1-9.5,16.7-12.3c-0.6-0.4-1.1-0.9-1.7-1.3c-1,4.3-2,8.5-3.2,12.8
			c-0.3,0.9,0.8,1.8,1.7,1.3c1.2-0.7,2.4-1.5,3.7-2.2c1.2-0.8,0.1-2.7-1.1-2c-1.2,0.7-2.4,1.5-3.7,2.2c0.6,0.4,1.1,0.9,1.7,1.3
			c1.1-4.2,2.2-8.5,3.2-12.8c0.2-1-0.8-1.7-1.7-1.3c-6.7,2.8-11.9,7.6-17.1,12.6c0.5,0.5,1.1,1.1,1.6,1.6
			c6.2-7.3,10.8-15.8,18.4-21.8c-0.5-0.5-1.1-1.1-1.6-1.6C4.6,381.8-2,387-8.9,391.8c0.5,0.5,1,1,1.6,1.6c2.6-4,5.9-8.1,8.1-12.4
			c0.7-1.4,1.3-3.1-0.4-4c-1.7-0.9-3.2,1-4.4,2c-3.7,3.2-7.1,6.6-10.4,10.3C-15.4,390.4-13.8,392.1-12.9,391L-12.9,391z"/>
	</g>
</g>
<g>
	<g>
		<path fill="none" stroke="#000000" stroke-miterlimit="10" d="M-41.8,333.7"/>
		<path fill="none" stroke="#000000" stroke-miterlimit="10" d="M-42.8,334.4"/>
		<path fill="none" stroke="#000000" stroke-miterlimit="10" d="M-59.9,345.1c0.1,0,0.1,0,0.2,0l0.6-0.4"/>
		<path fill="none" stroke="#000000" stroke-miterlimit="10" d="M-59.7,345.1l-0.3,0.2c0.4,10.3,1.2,17.1,3.5,27.7
			c1,4.9,4.3,11.9,5.5,16.5c0.8,2.9,0.3,7.7,1.2,10.5c3.1,10.5,6.4,19.8,9.1,26.8c0.5,1.3,2.8,1.1,3.7,2.2c1.3,1.6,3.8,1.7,5.4,2.9
			c1.5,1.1,2.1,2.9,3,4.5c3.8,6.1,12.2,6.7,19.3,6.6c4.5,0,9,0,13.5-0.1c2.1,0,4.2,0,6.1,0.7c1.9,0.7,3.5,2.1,5.4,2.5
			c4.5,1.1,8.6-2.9,11.4-6.6c3.6-4.7,6.8-9.7,9.7-14.9c2-3.5,3.8-7.6,2.7-11.5c-1.8-6.4,0,0,0,0c-5.4-18-9.3-40.3-15.8-57.9
			c-1.3-3.6-2-6.9-3.4-10.6c-1-2.6-1.2-5.4-3.6-7.4c-2-1.7-2.2-5.4-3.8-7.4c-8.2-10-20.2-16.6-32.4-22.1c2,1.8,3.8,3.8,5.6,5.7
			c5.2,5.7,12.5,13.6,17.7,19.3c2,1.3,5.8,1.1,6.1,2.2c0.6,2.3,1.2,4.7,1.8,7c2.4,9.7,4.9,19.4,7.3,29.1c1.5,5.8,2.9,11.6,4,17.5
			c0.4,2,0.7,3.9,0.9,5.9c0.2,1.8,0.4,3.6,0.5,5.4c-18.7,5.7-38.3,8.7-57.9,8.9c-0.9,0-3.6-1.9-3.9-2.6c-1.3-3.6-2.4-7.2-3.3-10.9
			c-0.5-1.9-0.7-6.9-1.1-8.9c-2-8.9-3.1-16.2-3.5-25.2c-0.1-3.5,0.5-4.5,0.6-8c0.1-2.7-0.8-6.7-0.6-9.3"/>
		<path fill="none" stroke="#000000" stroke-miterlimit="10" d="M-45.3,343.8c-4.5,0.3-10,1-14.4,1.3"/>
		<path fill="none" stroke="#000000" stroke-miterlimit="10" d="M-37.3,406.1c0.3,0.7,0.6,1.5,1.2,2c0.7,0.6,1.8,0.6,2.7,0.6
			c19.6-0.1,39.2-3.1,57.9-8.9c-0.6-9.8-3-19.3-5.4-28.8c-3-12-6-24-9.1-36.1c-0.3-1.1-4.1-0.9-6.1-2.2c0.7,0.8-0.7-0.8,0,0
			c-16.2,3.1-49.2,11-49.2,11"/>
	</g>
	<path fill="none" stroke="#000000" stroke-miterlimit="10" d="M-35.7,408.3c0,6-0.1,12-0.3,18c0,1-0.1,2.1-0.7,2.9"/>
	<path fill="none" stroke="#000000" stroke-miterlimit="10" d="M24.7,400c0.9-0.2,1.8,0.4,2.5,1c2.1,1.9,4.3,3.8,6.4,5.6
		c0.5,0.4,0.9,0.8,1.4,1.2c0.8,0.7,1.6,1.4,2.4,2.2c0.8,0.9,1.6,1.8,2.2,2.8"/>
	<path fill="none" stroke="#000000" stroke-miterlimit="10" d="M-45.3,343.8c1.8-4.6,1.7-6.5,3.9-10.4c0,0,8.8-21.6,13.5-31.9"/>
	<path fill="none" stroke="#000000" stroke-miterlimit="10" d="M-17.2,308.8c-0.5-0.3-1.1-0.6-1.6-0.9c-0.2-0.1-0.4-0.2-0.6-0.3
		c-1-0.6-2-1.2-3.1-1.7c-0.5-0.3-2.9-2.3-3.8-2.8c-0.8-0.4-0.9-0.7-1.8-1.5h-0.7l0,0c-2.1,0-3.8,2.3-5.3,3.9
		c-10.9,11.5-19.8,25.1-26,39.7"/>
	<path fill="none" stroke="#000000" stroke-miterlimit="10" d="M12.7,330c-0.2,0.4-0.4,0.7-0.7,1.1c-0.7,1.2-1.4,2.3-2.2,3.5"/>
	<path fill="none" stroke="#000000" stroke-miterlimit="10" d="M21.3,439.6c0.8,0.7,2-0.2,2.6-1.1c0.6-0.9,1.1-2.1,2.2-2.2"/>
	<path fill="none" stroke="#000000" stroke-miterlimit="10" d="M23.7,432.2c1.1,0,2.3-0.6,2.8-1.6"/>
	<path fill="none" stroke="#000000" stroke-miterlimit="10" d="M7,439c0.9,0,1.9,0.2,2.7,0.6"/>
	<path fill="none" stroke="#000000" stroke-miterlimit="10" d="M9,433c0.7,0.1,1.4,0.1,2-0.2"/>
	<path fill="none" stroke="#000000" stroke-miterlimit="10" d="M14.5,436.7c1.6,0.4,3.3-0.7,3.7-2.2"/>
	<path fill="none" stroke="#000000" stroke-miterlimit="10" d="M-28.3,428c1.9,1.1,4.1,1.6,6.3,1.4"/>
	<path fill="none" stroke="#000000" stroke-miterlimit="10" d="M17.5,411c0.3-0.1,0.8-0.1,1,0.2"/>
</g>
<g>
	<path fill="none" stroke="#000000" stroke-linecap="round" stroke-miterlimit="10" d="M-108.2,393.4c-6.5,0.9-12.9,3-18.7,6.1"/>
	<path fill="none" stroke="#000000" stroke-linecap="round" stroke-miterlimit="10" d="M23.2,288.4c2.4-2.1,4.7-4.2,7.1-6.3"/>
	<path fill="none" stroke="#000000" stroke-linecap="round" stroke-miterlimit="10" d="M-121.1,423.3c-3.7,2.5-7.3,5.2-10.8,8"/>
	<path fill="none" stroke="#000000" stroke-linecap="round" stroke-miterlimit="10" d="M12.6,281c-0.3-4.2-0.2-8.5,0.3-12.7"/>
	<path fill="none" stroke="#000000" stroke-linecap="round" stroke-miterlimit="10" d="M32.2,298c6.1-5.7,12.6-11,19.5-15.8"/>
	<path fill="none" stroke="#000000" stroke-linecap="round" stroke-miterlimit="10" d="M-102.3,440.1c-4.3,3.3-7.8,7.5-10.1,12.4"/>
	<path fill="none" stroke="#000000" stroke-linecap="round" stroke-miterlimit="10" d="M76.5,446.1c4.3,0.7,8.3,3.1,11,6.4"/>
	<path fill="none" stroke="#000000" stroke-linecap="round" stroke-miterlimit="10" d="M81.2,436.3c4.3-0.3,8.7,0.4,12.6,2.1"/>
	<path fill="none" stroke="#000000" stroke-linecap="round" stroke-miterlimit="10" d="M85.3,418.7c3-0.9,6.1-1.8,9.1-2.7"/>
</g>
<g display="none">
	<path display="inline" fill="none" stroke="#000000" stroke-width="2" stroke-linecap="round" stroke-miterlimit="10" d="
		M-60.7,191.6c-0.1-3.8-0.3-7.8-2-11.2c-1.7-3.4-5.4-6.2-9.1-5.5c-5.2,0.9-7.4,7-8.2,12.2c-2,12.9-1.6,26-1.1,39.1
		c0.1,3,0.3,6.3,2.1,8.8c1.8,2.5,5,3.7,7.9,4.7c1.7,0.6,3.5,1.2,5.3,0.9c2.2-0.4,3.9-2.3,4.7-4.4c0.8-2.1,1-4.4,1.1-6.6
		c0.3-5.7,0.6-11.4,0.9-17.2"/>
	<path display="inline" fill="none" stroke="#000000" stroke-width="2" stroke-linecap="round" stroke-miterlimit="10" d="
		M-46.2,198.3c0,11.9,0,23.9,0.1,35.8c-0.3-9.4-0.6-18.9,1.1-28.1c0.3-1.5,0.6-3.1,1.8-4c0.7-0.5,1.6-0.8,2.4-1
		c3.1-0.7,6.8-0.9,9.2,1.3c3.1,2.8,2.1,8.2-0.9,11.1s-7.3,3.9-11.3,4.8c6.5,6.5,13.1,13,19.7,19.4"/>
	<path display="inline" fill="none" stroke="#000000" stroke-width="2" stroke-linecap="round" stroke-miterlimit="10" d="
		M-16.9,203.7c3.9,6.1,7.7,12.1,11.6,18.2c1.1-8.2,3-16.4,5.7-24.3"/>
	<path display="inline" fill="none" stroke="#000000" stroke-width="2" stroke-linecap="round" stroke-miterlimit="10" d="
		M-5.5,222.3c0.1,6.7,0.7,13.4,1.8,20"/>
	<path display="inline" fill="none" stroke="#000000" stroke-width="2" stroke-linecap="round" stroke-miterlimit="10" d="M23.8,207
		c0.3-2.4,0.3-4.8-0.2-7.2c-0.3-1.5-1.5-3.4-2.9-2.8c-0.6,0.2-0.9,0.7-1.3,1.2c-2.5,4-3.7,8.7-3.5,13.3c0,0.8,0.1,1.6,0.4,2.4
		c0.4,1.1,1.1,2,1.7,2.9c3.9,5.3,6.7,11.5,8.1,17.9c-4.6,2.4-9.6,4.1-14.7,5.2c0-4.3-0.1-8.6-0.1-12.9"/>
	<path display="inline" fill="none" stroke="#000000" stroke-width="2" stroke-linecap="round" stroke-miterlimit="10" d="M43.2,201
		c0.3,14.7-0.9,29.5-3.6,44"/>
	<path display="inline" fill="none" stroke="#000000" stroke-width="2" stroke-linecap="round" stroke-miterlimit="10" d="M33.5,202
		c0,0,13.9,0,21,0"/>
	<path display="inline" fill="none" stroke="#000000" stroke-width="2" stroke-linecap="round" stroke-miterlimit="10" d="
		M59.8,240.9c2.8-15.5,7.6-30.7,14.2-45c1.2,14.3,3.8,28.5,7.7,42.4"/>
	<path display="inline" fill="none" stroke="#000000" stroke-width="2" stroke-linecap="round" stroke-miterlimit="10" d="M64.5,222
		c4,0,8,0,12,0"/>
	<path display="inline" fill="none" stroke="#000000" stroke-width="2" stroke-linecap="round" stroke-miterlimit="10" d="M94.5,201
		c0,12.7,0,25.4,0,38.1c4.6-1.8,9.7-2.5,14.6-2.1"/>
	<path display="inline" fill="none" stroke="#000000" stroke-width="2" stroke-linecap="round" stroke-miterlimit="10" d="
		M129.9,204.3c-1.7-1.8-4.3-2.5-6.7-1.8c0,6.3-0.1,12.7-0.1,19c0,0.7,0,1.5,0.4,2.1c0.5,0.7,1.5,1,2.3,1.3c3.3,1.2,5.5,4.6,6.3,8
		c0.8,3.5,0.4,7.1,0.1,10.6c-3.4,0.7-6.9,1-10.3,0.8c-0.3-4.6-0.6-9.3-1-13.9"/>
</g>
<g>
	<path fill="#99FF99" d="M36.9,23.6c-31.3,0-24.8,120.6-4.2,120.6C63.1,144.2,62.4,23.6,36.9,23.6z M37.3,124
		c-9.9,0-12.6-79.4-2.3-79.4C44.1,44.6,44.6,124,37.3,124z"/>
	<path fill="#99FF99" d="M73.7,20.7c6,0.2,12-0.8,17.6-3.2c0.6-0.2,1.2,0.1,1.4,0.7c4.7,22,11,47.7,13.4,57.8c0.3,1,1.7,1,2,0
		l11.5-58.4c0.1-0.4,0.4-0.7,0.9-0.8c2.6-0.3,11.8-1.4,16.4-1.7c0.5,0,1,0.3,1.1,0.9c5.2,39.8,9.4,79.8,12.6,119.8
		c0,0.5-0.3,1-0.9,1.1l-15.5,2.1c-0.6,0.1-1.1-0.3-1.1-0.9l-8.1-65.3c-0.1-1.1-1.7-1.2-2-0.2L109,120.9c-0.3,0.9-1.6,1-1.9,0
		c-3.2-9.6-13.6-40-21.3-58.5c-0.4-1-1.9-0.7-1.9,0.4c-0.5,25.6-3,56.7-3.6,81.9c0,0.6-0.5,1-1.1,1c-5.8-0.4-8.2-0.7-13-2.9
		c-0.4-0.2-0.6-0.5-0.6-0.9c0.2-7.7,2.5-82.8,6.8-120.3C72.7,21.1,73.1,20.7,73.7,20.7z"/>
	<path fill="#99FF99" d="M191.3,21.1c-41.8,0-39.6,116.8-2.4,116.8c26.2,0,24.1-40.1,23-52.9c-10.5-0.7-12.7-0.3-23.2,0.8
		c-0.3,5.1,0.1,6.8,1.3,11.7c5-1.2,6.1-1.5,11.2-0.9c0,18.3-2.8,24.3-11.8,24.3c-18.2,0-28.7-85.7,0.9-85.7c9,0,7,18.8,8.4,24.9
		c2-0.3,9.7-0.5,11.7-0.8C210.4,59.3,212.9,21.1,191.3,21.1z"/>
	<rect fill="none" width="228.5" height="158"/>
</g>
</svg>
