<?xml version="1.0" encoding="utf-8"?>
<!-- Generator: Adobe Illustrator 19.1.0, SVG Export Plug-In . SVG Version: 6.00 Build 0)  -->
<svg version="1.1" id="Layer_1" xmlns="http://www.w3.org/2000/svg" xmlns:xlink="http://www.w3.org/1999/xlink" x="0px" y="0px"
	 viewBox="0 0 228.5 158" enable-background="new 0 0 228.5 158" xml:space="preserve">
<g opacity="1">
	<path fill="#99FF99" d="M36.9,23.6c-31.3,0-24.8,120.6-4.2,120.6C63.1,144.2,62.4,23.6,36.9,23.6z M37.3,124
		c-9.9,0-12.6-79.4-2.3-79.4C44.1,44.6,44.6,124,37.3,124z"/>
	<path fill="#99FF99" d="M73.7,20.7c6,0.2,12-0.8,17.6-3.2c0.6-0.2,1.2,0.1,1.4,0.7c4.7,22,11,47.7,13.4,57.8c0.3,1,1.7,1,2,0
		l11.5-58.4c0.1-0.4,0.4-0.7,0.9-0.8c2.6-0.3,11.8-1.4,16.4-1.7c0.5,0,1,0.3,1.1,0.9c5.2,39.8,9.4,79.8,12.6,119.8
		c0,0.5-0.3,1-0.9,1.1l-15.5,2.1c-0.6,0.1-1.1-0.3-1.1-0.9l-8.1-65.3c-0.1-1.1-1.7-1.2-2-0.2L109,120.9c-0.3,0.9-1.6,1-1.9,0
		c-3.2-9.6-13.6-40-21.3-58.5c-0.4-1-1.9-0.7-1.9,0.4c-0.5,25.6-3,56.7-3.6,81.9c0,0.6-0.5,1-1.1,1c-5.8-0.4-8.2-0.7-13-2.9
		c-0.4-0.2-0.6-0.5-0.6-0.9c0.2-7.7,2.5-82.8,6.8-120.3C72.7,21.1,73.1,20.7,73.7,20.7z"/>
	<path fill="#99FF99" d="M191.3,21.1c-41.8,0-39.6,116.8-2.4,116.8c26.2,0,24.1-40.1,23-52.9c-10.5-0.7-12.7-0.3-23.2,0.8
		c-0.3,5.1,0.1,6.8,1.3,11.7c5-1.2,6.1-1.5,11.2-0.9c0,18.3-2.8,24.3-11.8,24.3c-18.2,0-28.7-85.7,0.9-85.7c9,0,7,18.8,8.4,24.9
		c2-0.3,9.7-0.5,11.7-0.8C210.4,59.3,212.9,21.1,191.3,21.1z"/>
	<rect fill="none" width="228.5" height="158"/>
</g>
</svg>
