<?xml version="1.0" encoding="utf-8"?>
<!-- Generator: Adobe Illustrator 19.1.0, SVG Export Plug-In . SVG Version: 6.00 Build 0)  -->
<svg version="1.1" xmlns="http://www.w3.org/2000/svg" xmlns:xlink="http://www.w3.org/1999/xlink" x="0px" y="0px"
	 viewBox="0 0 50 37.9" enable-background="new 0 0 50 37.9" xml:space="preserve">
<g id="Layer_1" display="none">
	<g display="inline">
		<path fill="#FCF8E6" stroke="#000000" stroke-miterlimit="10" d="M31.5-25.6C25.9-17.2-18.3-6.4-30.3,3.6
			c-11.4,9.5-21.9,20.1-34.2,28.3c-0.7,0.4-0.4,1.5,0.4,1.6c13,0.9,26.2-0.5,38.7-4.1l95.7-10.9L31.5-25.6z"/>
		<path fill="#FCF8E6" stroke="#000000" stroke-miterlimit="10" d="M41.8-28.2C27.6-4.9-3-3.7-17.4,1.7C-21,3-33.3,9.8-33.3,9.8
			S-37,19-36.8,26.3c19.4,3.3,52.4,2.8,71.7,6.1C23.4,51.7-19,70.3-40.3,77.3c-3.7,1.2-3.3,6.6,0.5,7.3c8.2,1.4,29.5,3,37.6,1.8
			c39.3-6,51.8-30.7,89.7-39.4L41.8-28.2z"/>
		<path fill="#FCFBF7" stroke="#000000" stroke-miterlimit="10" d="M60.2,22.4l53.6-9.9c2.2-3.9,1.1-8.9-1-12.9S96.2-15.1,93.8-18.9
			c-4.8-7.6,2.1-16.9,0.6-25.7c-19.2-8.9-44.2-3.1-57.5,13.3c-1.2,1.5-3.8,4-5.1,5.4c-0.8,0.9,1.5,5.2,4,6.4L60.2,22.4z"/>
		<path fill="#FCFBF7" stroke="#000000" stroke-miterlimit="10" d="M41-1.2c2.1,3.2,4.9,5.8,7.1,8.9c8.1,11.5,7.3,28.9,18.7,37.2
			C76.7,52,91.5,47.9,100,39c6.9-7.3,10.7-16.8,13.7-26.5c1-3.2-1.4-6.5-4.8-6.6L89,5.7C88-4,88.2-13.8,89.8-23.4
			c1-6.2,2.4-13.2-4.6-17.3c-2.1-1.2-4.5-1.9-7-1.9c-16-0.4-36.6,7.2-42.5,22.5C35.7-20.1,37.2-7,41-1.2z"/>
	</g>
</g>
<g id="Layer_1_copy">
	<g>
		<g>
			<path fill="#FCF8E6" d="M26.8,6.8c-1.5,2.3-13.6,5.3-16.9,8c-3.1,2.6-6,5.5-9.4,7.7c-0.2,0.1-0.1,0.4,0.1,0.4
				c3.6,0.2,7.2-0.1,10.6-1.1l26.2-3L26.8,6.8z"/>
			<path d="M2.7,23.4c-0.7,0-1.4,0-2.1-0.1c-0.3,0-0.5-0.2-0.6-0.5c-0.1-0.3,0-0.6,0.3-0.7c2.3-1.5,4.4-3.4,6.4-5.2
				c0.9-0.8,1.9-1.7,2.9-2.5c1.6-1.4,5.3-2.7,8.8-4.1c3.6-1.3,7.3-2.7,8-3.8l0.3-0.4l11.5,13.1l-26.9,3.1C8.5,23,5.6,23.4,2.7,23.4z
				 M1.2,22.6c3.4,0.2,6.7-0.2,9.9-1.1l0.1,0l25.4-2.9L26.8,7.4c-1.2,1.2-4.4,2.4-8,3.8c-3.5,1.3-7.1,2.7-8.6,3.9
				c-1,0.8-2,1.7-2.9,2.5C5.3,19.3,3.3,21.1,1.2,22.6z"/>
		</g>
		<g>
			<path fill="#FCF8E6" d="M29.6,6.1c-3.9,6.4-12.3,6.7-16.2,8.2c-1,0.4-4.3,2.2-4.3,2.2s-1,2.5-1,4.5c5.3,0.9,14.3,0.8,19.6,1.7
				C24.6,27.9,13,33,7.1,34.9c-1,0.3-0.9,1.8,0.1,2c2.2,0.4,8.1,0.8,10.3,0.5c10.8-1.7,14.2-8.4,24.5-10.8L29.6,6.1z"/>
			<path d="M15.4,37.9c-2.7,0-6.5-0.3-8.1-0.6C6.6,37.2,6.1,36.7,6,36c-0.1-0.7,0.3-1.3,1-1.5c2.8-0.9,7.2-2.7,11.2-4.9
				c4.3-2.3,7.3-4.6,8.8-6.7c-2.6-0.4-5.9-0.6-9.1-0.7c-3.5-0.2-7.2-0.4-9.9-0.8l-0.3-0.1l0-0.3c-0.1-2,0.9-4.6,1-4.7l0.1-0.1
				l0.1-0.1c0.1-0.1,3.4-1.9,4.4-2.2c1-0.4,2.1-0.6,3.5-1c4.3-1,9.6-2.3,12.5-7l0.4-0.6l13.2,21.6L42.2,27
				c-4.9,1.1-8.2,3.2-11.5,5.3c-3.6,2.3-7.4,4.6-13.1,5.5C17.1,37.9,16.3,37.9,15.4,37.9z M8.5,20.6c2.6,0.4,6.1,0.6,9.4,0.8
				c3.5,0.2,7.2,0.4,9.9,0.8l0.6,0.1l-0.3,0.5c-1.4,2.4-4.6,4.9-9.4,7.5c-5.1,2.8-10,4.5-11.4,4.9c-0.3,0.1-0.4,0.4-0.4,0.6
				c0,0.2,0.2,0.5,0.5,0.6c2.1,0.4,8,0.8,10.2,0.5c5.6-0.9,9.1-3.1,12.8-5.4c3.2-2,6.5-4.1,11.2-5.2L29.6,6.8
				c-3.1,4.5-8.6,5.9-12.7,6.9c-1.3,0.3-2.5,0.6-3.4,0.9c-0.8,0.3-3.5,1.8-4.2,2.1C9.2,17.2,8.6,19.1,8.5,20.6z"/>
		</g>
		<g>
			<path fill="#FCFBF7" d="M34.6,19.9l14.6-2.7c0.6-1.1,0.3-2.4-0.3-3.5s-4.5-4-5.2-5.1c-1.3-2.1,0.6-4.6,0.2-7
				c-5.3-2.4-12.1-0.9-15.7,3.6c-0.3,0.4-1,1.1-1.4,1.5c-0.2,0.2,0.4,1.4,1.1,1.7L34.6,19.9z"/>
			<path d="M34.4,20.4L27.7,8.7c-0.6-0.3-1.1-1.1-1.2-1.7c-0.1-0.3,0-0.5,0.1-0.6C26.7,6.3,26.8,6.1,27,6c0.3-0.3,0.7-0.8,0.9-1
				c3.8-4.7,10.8-6.3,16.2-3.8l0.2,0.1l0,0.2c0.2,1.1-0.1,2.2-0.3,3.3c-0.3,1.3-0.6,2.6,0.1,3.6c0.3,0.4,1.3,1.4,2.4,2.3
				c1.3,1.1,2.5,2.2,2.8,2.8c0.7,1.4,0.8,2.9,0.3,3.9l-0.1,0.2L34.4,20.4z M27.2,6.9c0.1,0.3,0.5,1,0.9,1.2l0.1,0.1l6.6,11.3
				L49,16.8c0.3-0.8,0.2-1.9-0.4-3c-0.3-0.5-1.5-1.6-2.7-2.6c-1.2-1-2.2-1.9-2.5-2.5C42.6,7.5,43,6,43.3,4.6
				c0.2-0.9,0.4-1.8,0.3-2.7c-5.1-2.2-11.5-0.7-15,3.6c-0.2,0.3-0.6,0.7-1,1.1C27.4,6.7,27.3,6.8,27.2,6.9z"/>
		</g>
		<g>
			<path fill="#FCFBF7" d="M29.4,13.4c0.6,0.9,1.3,1.6,1.9,2.4c2.2,3.1,2,7.9,5.1,10.2c2.7,2,6.8,0.8,9.1-1.6c1.9-2,2.9-4.6,3.7-7.3
				c0.3-0.9-0.4-1.8-1.3-1.8l-5.4-0.1c-0.3-2.6-0.2-5.3,0.2-7.9c0.3-1.7,0.7-3.6-1.3-4.7c-0.6-0.3-1.2-0.5-1.9-0.5
				c-4.4-0.1-10,2-11.6,6.2C27.9,8.3,28.3,11.9,29.4,13.4z"/>
			<path d="M39.8,27.4c-1.4,0-2.6-0.4-3.6-1.1c-1.9-1.4-2.6-3.7-3.3-5.9c-0.5-1.5-1-3.1-1.9-4.4c-0.3-0.4-0.6-0.7-0.9-1.1
				c-0.4-0.4-0.7-0.9-1.1-1.3C28,12,27.5,8.5,27.5,8.3l0-0.1l0-0.1c1.7-4.3,7.4-6.5,12-6.4c0.8,0,1.5,0.2,2.1,0.6
				c2.1,1.2,1.8,3.3,1.5,5l0,0.2c-0.4,2.5-0.5,5-0.2,7.5L48,15c0.6,0,1.1,0.3,1.4,0.7c0.3,0.5,0.4,1,0.3,1.6
				c-0.8,2.6-1.8,5.3-3.8,7.4C44,26.6,41.8,27.4,39.8,27.4z M28.3,8.3c0.1,0.6,0.5,3.5,1.4,4.9l0,0c0.3,0.4,0.6,0.8,1,1.3
				c0.3,0.4,0.6,0.8,0.9,1.2c1,1.4,1.5,3,2,4.6c0.7,2.2,1.3,4.2,3,5.5c2.6,1.9,6.5,0.7,8.6-1.5c1.9-2,2.9-4.6,3.6-7.1
				c0.1-0.3,0-0.6-0.1-0.9c-0.2-0.3-0.5-0.4-0.8-0.4l-5.8-0.1l0-0.4c-0.3-2.7-0.2-5.4,0.2-8.1l0-0.2c0.3-1.6,0.5-3.2-1.1-4.1
				c-0.5-0.3-1.1-0.5-1.7-0.5C35.3,2.4,29.9,4.4,28.3,8.3z"/>
		</g>
		<path d="M43.1,4.5l-0.7-0.4l0,0c0.5-0.8,0.9-1.7,1.1-2.6l0.8,0.2C44.2,2.6,43.6,3.6,43.1,4.5L43.1,4.5z"/>
	</g>
</g>
<g id="Layer_3" display="none">
</g>
<g id="Layer_3_copy">
</g>
</svg>
