<?xml version="1.0" encoding="utf-8"?>
<!-- Generator: Adobe Illustrator 19.1.0, SVG Export Plug-In . SVG Version: 6.00 Build 0)  -->
<svg version="1.1" xmlns="http://www.w3.org/2000/svg" xmlns:xlink="http://www.w3.org/1999/xlink" x="0px" y="0px"
	 viewBox="0 0 20 40.6" enable-background="new 0 0 20 40.6" xml:space="preserve">

<g id="Layer_3_copy">
	<g>
		<g>
			<path fill="#FCF8E6" d="M1.1,13.3c0.5,3.7,1.1,5.6,0,9.5C0,27.1,0,31.7,1.1,36c0.2,0.7,1.8,2,2.1,1.9c0.5-0.2,0.2-7.7,1.8-11.3
				C5.8,25,8.4,23.6,9,19c0-0.2,0.2-0.2,0.3,0c2.1,5.2,1.7,6.5,0.5,9.9C8,34.2,9.2,36.6,6.7,40.2c0.9,0.6,2.3-0.9,3.2-1.5
				c0.9-0.6,6-8.6,5.8-14.8c-0.1-2.4,2.1-10.2,2.1-10.2L1.1,13.3z"/>
			<path d="M7.2,40.6c-0.2,0-0.4-0.1-0.6-0.2l-0.2-0.1l0.1-0.2c1.4-2,1.6-3.6,1.8-5.6c0.2-1.6,0.4-3.3,1.2-5.6
				c1.2-3.3,1.6-4.5-0.4-9.5c-0.5,3-1.9,4.7-2.9,5.9c-0.4,0.5-0.8,1-1,1.4c-1,2.2-1.3,6-1.4,8.5c-0.2,2.3-0.2,2.8-0.5,2.9
				c-0.2,0.1-0.4,0-0.5-0.1c-0.6-0.3-1.8-1.3-1.9-2c-1.2-4.4-1.2-9,0-13.4c0.9-3.3,0.6-5.2,0.2-8.1C1,14.2,1,13.8,0.9,13.3l0-0.3
				l17.3,0.4L18,13.7c0,0.1-2.1,7.8-2.1,10.2c0.2,6.2-4.9,14.3-5.9,15c-0.2,0.1-0.4,0.3-0.7,0.5C8.7,40,7.9,40.6,7.2,40.6z
				 M7.1,40.1c0.5,0.1,1.3-0.5,2-1.1c0.2-0.2,0.5-0.4,0.7-0.5c0.7-0.5,5.9-8.4,5.7-14.6c-0.1-2.2,1.6-8.5,2-10L1.4,13.6
				c0.1,0.4,0.1,0.7,0.2,1c0.4,2.9,0.7,4.8-0.2,8.3c-1.2,4.3-1.2,8.8,0,13.1c0.2,0.6,1.4,1.5,1.7,1.7c0.1-0.3,0.2-1.4,0.3-2.5
				c0.2-2.5,0.4-6.4,1.5-8.6c0.2-0.5,0.6-1,1.1-1.5c1-1.2,2.4-2.9,2.9-6c0-0.2,0.2-0.3,0.3-0.3c0.2,0,0.4,0.1,0.4,0.3
				c2.2,5.3,1.7,6.7,0.5,10.1c-0.8,2.2-1,4-1.2,5.5C8.6,36.4,8.4,38.1,7.1,40.1z"/>
		</g>
		<g>
			<path fill="#FCFBF7" d="M8.1,0.8c1.7,0.4,5.3,2.7,5.3,2.7s0.9-0.8,3.7-0.9c3.1-0.1,2.1,8.3-0.8,11.9c-0.5,0.6-12.7-0.1-13.1-1.7
				C2.3,9.9,2.4,7.1,3.1,4.1C3.1,4.1,6.8,0.5,8.1,0.8z"/>
			<path d="M14.3,15c-0.5,0-1.1,0-1.9-0.1c-2.3-0.1-4.8-0.4-6.5-0.7c-2.5-0.5-2.9-1-3-1.3c-0.8-2.8-0.8-5.6-0.1-8.8l0-0.1l0,0
				c0.4-0.4,3.8-3.7,5.2-3.4v0c1.6,0.4,4.5,2.2,5.2,2.6c0.4-0.2,1.4-0.7,3.7-0.8c0.7,0,1.3,0.3,1.7,1c1.2,2.4,0,8.4-2.2,11.2
				C16.4,14.7,16.3,15,14.3,15z M3.4,4.3c-0.7,3.1-0.7,5.8,0.1,8.5c0,0,0.1,0.2,0.7,0.4c2.7,1.1,11.3,1.5,12,1.1
				c2.1-2.7,3.3-8.5,2.1-10.7c-0.3-0.5-0.7-0.8-1.2-0.8c-2.6,0.1-3.5,0.8-3.5,0.8l-0.1,0.1l-0.2-0.1c0,0-3.6-2.3-5.2-2.7l0,0
				C7.2,0.8,4.7,2.9,3.4,4.3z"/>
		</g>
		<g>
			<path fill="#FCFBF7" d="M4.2,0.3C5.4,0,7.4,1.8,8.3,3.5c0.6-1,1.6-1.7,2.3-1.6c1,0.2,3.1,2.6,3.1,2.6s0,0,1.3-1.2
				c0.4-0.3,1.8-0.4,3.2-0.1c1.3,0.2,1.6,5.6,1.5,6.1c-0.4,1.8-2.3,6.2-2.8,7c-0.8,1.1-15.4-0.5-15.6-1.8C0.8,10.5-0.1,8,1,4.2
				C1,4.2,2.9,0.6,4.2,0.3z"/>
			<path d="M14.4,16.8c-0.8,0-1.7,0-2.9-0.1c-2.9-0.2-6.1-0.7-8.1-1.1c-2.1-0.5-2.4-0.9-2.4-1.2c-0.1-0.8-0.2-1.6-0.4-2.3
				c-0.5-2.7-0.8-4.9,0-8l0,0C1,3.7,2.8,0.3,4.1,0l0,0c1.4-0.3,3.2,1.4,4.1,3c0.7-0.9,1.6-1.5,2.3-1.4c0.9,0.2,2.5,1.9,3.1,2.5
				l1.2-1.1c0.5-0.4,2.1-0.4,3.4-0.2c0.3,0,0.5,0.2,0.7,0.5c0.9,1.3,1.1,5.4,1,5.9c-0.4,1.8-2.3,6.3-2.9,7.1
				C16.9,16.7,16,16.8,14.4,16.8z M1.2,4.3c-0.8,2.9-0.5,5.1,0,7.7c0.1,0.7,0.2,1.5,0.4,2.3c0.1,0.3,1.9,0.9,6.3,1.5
				c4.8,0.6,8.6,0.6,8.9,0.2c0.5-0.8,2.4-5.1,2.8-6.9c0.1-0.4-0.1-4.3-0.9-5.5c-0.1-0.2-0.2-0.3-0.4-0.3c-1.5-0.2-2.8-0.1-3,0.1
				l-1.5,1.4l-0.2-0.2c-0.6-0.7-2.2-2.4-3-2.5C9.9,2,9,2.7,8.5,3.6L8.2,4L8,3.6C7.2,2,5.3,0.3,4.2,0.5l0,0C3.9,0.6,2.8,1.4,1.2,4.3z
				"/>
		</g>
	</g>
</g>
</svg>
