<?xml version="1.0" encoding="utf-8"?>
<!-- Generator: Adobe Illustrator 19.1.0, SVG Export Plug-In . SVG Version: 6.00 Build 0)  -->
<svg version="1.1" id="Layer_1" xmlns="http://www.w3.org/2000/svg" xmlns:xlink="http://www.w3.org/1999/xlink" x="0px" y="0px"
	 viewBox="0 0 960 560" enable-background="new 0 0 960 560" xml:space="preserve">
<g>
	<path fill="none" stroke="#000000" stroke-width="3.3929" d="M115.1,221.7v-51.5h-5.6c-0.2-1.7-0.3-3.4-0.4-5.1
		c-0.1-1.7-0.1-3.4-0.1-5.1s0-3.4,0.1-5.1c0.1-1.7,0.2-3.4,0.4-5.1h33.3v28.5c1.6-1,3.6-1.9,6-2.7c2.4-0.8,5.2-1.2,8.4-1.2
		c3.2,0,6.1,0.4,8.8,1.3c2.7,0.9,5,2.2,7,4c2,1.8,3.5,4,4.6,6.5c1.1,2.6,1.6,5.6,1.6,9v26.6h5.6c0.2,1.7,0.3,3.4,0.4,5.1
		c0.1,1.7,0.1,3.4,0.1,5.1s0,3.4-0.1,5.1c-0.1,1.7-0.2,3.4-0.4,5.1h-33.3v-40.4c0-1.6-0.3-2.9-0.8-3.9c-0.5-1-1.4-1.5-2.7-1.5
		c-0.5,0-1,0.1-1.6,0.2c-0.6,0.2-1.2,0.5-1.7,1.2c-0.5,0.6-1,1.5-1.3,2.6c-0.4,1.1-0.5,2.7-0.5,4.6v37.1h-33.3
		c-0.2-1.7-0.3-3.4-0.4-5.1c-0.1-1.7-0.1-3.4-0.1-5.1s0-3.4,0.1-5.1c0.1-1.7,0.2-3.4,0.4-5.1H115.1z"/>
	<path fill="none" stroke="#000000" stroke-width="3.3929" d="M256.2,240.6c-4.3,1.1-8.5,2-12.6,2.5c-4.1,0.5-8.6,0.8-13.4,0.8
		c-6.5,0-12.1-0.9-16.7-2.8c-4.6-1.9-8.5-4.4-11.5-7.6c-3-3.2-5.2-6.9-6.6-11.1c-1.4-4.2-2.1-8.8-2.1-13.6c0-4.5,0.7-8.8,2-12.9
		c1.3-4.2,3.3-7.8,6-11.1c2.7-3.2,6.1-5.8,10.4-7.8c4.2-2,9.3-2.9,15.1-2.9c6.2,0,11.4,1,15.5,2.9c4.2,2,7.5,4.5,9.9,7.6
		c2.4,3.1,4.2,6.5,5.2,10.3c1,3.8,1.5,7.6,1.5,11.3v9.4h-37.6c0.7,2.4,2.3,4.4,4.6,5.8c2.3,1.4,5.7,2.1,10.2,2.1
		c4.1,0,7.9-0.3,11.6-0.9c3.7-0.6,6.5-1.2,8.5-1.6V240.6z M233.7,201.3c0-6.8-2.2-10.1-6.5-10.1c-4.3,0-6.6,3.4-6.8,10.1H233.7z"/>
	<path fill="none" stroke="#000000" stroke-width="3.3929" d="M272.5,242.7c1.5,0.7,3.4,1.2,5.7,1.8c2.2,0.5,4.4,0.8,6.5,0.8
		c2.1,0,3.9-0.4,5.5-1.1c1.5-0.7,2.8-2.4,3.7-4.9l-20.8-42.9h-5.6c-0.2-1.7-0.3-3.4-0.4-5.1c-0.1-1.7-0.1-3.4-0.1-5.1s0-3.4,0.1-5.1
		c0.1-1.7,0.2-3.4,0.4-5.1h36.8c0.2,1.6,0.3,3.3,0.4,5c0.1,1.7,0.1,3.4,0.1,5c0,1.6,0,3.3-0.1,4.9c-0.1,1.7-0.2,3.3-0.4,4.9h-2.8
		l6.5,17.7l5.5-17.7h-2.8c-0.2-1.6-0.3-3.3-0.4-4.9c-0.1-1.7-0.1-3.3-0.1-4.9c0-1.6,0-3.3,0.1-5c0.1-1.7,0.2-3.4,0.4-5h34.9
		c0.2,1.7,0.3,3.4,0.4,5.1c0.1,1.7,0.1,3.4,0.1,5.1s0,3.4-0.1,5.1c-0.1,1.7-0.2,3.4-0.4,5.1h-5.6l-19.8,47.4c-2,4.9-4.4,8.7-7,11.5
		c-2.6,2.8-5.3,4.8-7.9,6.1c-2.7,1.3-5.3,2.1-7.9,2.4c-2.6,0.3-4.9,0.4-7,0.4c-4.2,0-7.6-0.3-10.4-0.8c-2.8-0.5-5.3-1-7.4-1.5V242.7
		z"/>
	<path fill="none" stroke="#000000" stroke-width="3.3929" d="M378.3,215c0.2,2.4,0.3,4.7,0.4,6.9c0.1,2.2,0.1,4.5,0.1,6.8
		c0,2.3,0,4.5-0.1,6.8c-0.1,2.2-0.2,4.5-0.4,6.8h-29.8c-0.2-2.3-0.3-4.5-0.4-6.8c-0.1-2.2-0.2-4.5-0.2-6.8c0-2.3,0.1-4.5,0.2-6.8
		c0.1-2.2,0.3-4.5,0.4-6.9H378.3z"/>
</g>
<g>
	<g>
		<path fill="none" stroke="#000000" stroke-width="2" d="M115.4,350.4c2.4,1.5,3.5,3,3.5,4.5c0,0.7-0.2,1.4-0.5,1.9
			c-0.3,0.6-0.5,0.9-0.5,0.9c-5.2,10.7-10.5,21.3-15.7,31.8c-0.3,0.7-0.6,1.2-0.8,1.6c-0.2,0.3-0.6,0.6-1.1,0.9
			c-0.5,0.2-1.1,0.3-1.8,0.1c-0.7-0.2-1.8-0.7-3.2-1.7c-2.4-1.6-3.5-3.2-3.5-4.6c0-1,1.9-5,5.8-12.3c-4-7.7-8-15.4-11.9-23.2
			c-0.8-1.5-1.2-2.6-1.2-3.3c0-1.3,1.1-2.3,3.2-3c1.4-0.4,2.4-0.6,3.2-0.4c0.8,0.2,1.4,0.5,1.9,1c0.5,0.4,0.8,0.9,1,1.3
			c0.2,0.4,1.3,2.5,3.3,6.4c2,3.9,3.9,7.5,5.7,10.8c0.2-0.6,1.3-2.8,3.2-6.7c2-3.9,3-5.9,3.1-6.2c0.1-0.2,0.4-0.5,0.7-0.9
			c0.5-0.6,1.3-0.8,2.2-0.6C113,349,114.1,349.5,115.4,350.4z"/>
		<path fill="none" stroke="#000000" stroke-width="2" d="M124.6,355.7c3.4-2.5,7.2-3.4,11.5-2.7c4.3,0.7,8.1,2.8,11.5,6.3
			c3.3,3.5,5,7.7,5,12.5c0,3.3-0.9,6.2-2.6,8.5c-1.7,2.4-3.8,4-6.3,4.8c-2.5,0.9-5,1.1-7.6,0.7c-2.6-0.4-5.2-1.5-7.7-3.2
			c-2.5-1.7-4.6-4-6.3-6.9c-1.7-2.9-2.5-5.9-2.5-9.1C119.5,361.9,121.2,358.2,124.6,355.7z M132.1,373.2c1.3,1.2,2.6,1.9,3.9,2.1
			c1.3,0.2,2.6-0.1,4-0.9c1.3-0.8,2-2.2,2-4.1c0-2-0.6-3.5-1.9-4.7c-1.2-1.1-2.6-1.8-4-2.1c-1.4-0.2-2.8,0.1-4,0.8
			c-1.2,0.8-1.9,2.2-1.9,4.1C130.1,370.4,130.8,372,132.1,373.2z"/>
		<path fill="none" stroke="#000000" stroke-width="2" d="M169.9,389.4c-4-0.4-7.4-2.3-10.1-5.6c-2.7-3.4-4-7.2-4-11.6
			c0-3.5,0-7,0-10.5c0-1,0-1.7,0.1-2.1c0.1-0.4,0.2-0.9,0.5-1.5c0.6-1,2.1-1.4,4.7-1.1c2.8,0.3,4.4,1.2,4.9,2.8
			c0.2,0.7,0.4,1.7,0.4,3.1c0,3.5,0,7,0,10.5c0,1.6,0.5,3,1.4,4c0.9,1,2.2,1.6,3.8,1.7c1.6,0.1,2.9-0.2,3.8-1.1
			c1-0.9,1.5-2.1,1.5-3.7c0-3.5,0-7.1,0-10.6c0-0.9,0-1.6,0.1-2.1c0.1-0.5,0.2-1,0.6-1.5c0.5-1,2.1-1.4,4.6-1.2
			c2.5,0.2,4.1,0.8,4.6,1.9c0.3,0.6,0.4,1.2,0.5,1.6c0.1,0.5,0.1,1.2,0.1,2.1c0,7.1,0,14.2,0,21.2c0,0.9,0,1.5-0.1,2
			c-0.1,0.5-0.3,1-0.6,1.5c-0.6,1-2.1,1.4-4.6,1.3c-2.4-0.2-3.9-0.8-4.5-1.8c-0.4-0.7-0.6-1.5-0.6-2.5c-0.2,0.3-0.5,0.6-1.1,1.1
			c-0.6,0.5-1.1,0.9-1.6,1.2C172.9,389.3,171.5,389.6,169.9,389.4z"/>
		<path fill="none" stroke="#000000" stroke-width="2" d="M201.7,348.9c0.7,0.7,1,1.9,1,3.5c0,0.3,0,0.6,0,1c0,1,0,1.7-0.1,2.2
			c-0.3,3.5-1.3,6.5-3.1,8.9c-1.8,2.4-4.1,3.6-6.8,3.5c-0.3,0-0.5-0.2-0.8-0.7c-0.2-0.4-0.3-1-0.3-1.7c0-0.7,0.1-1.2,0.3-1.6
			c0.2-0.4,0.4-0.6,0.6-0.6c0.2,0,0.4-0.1,0.5-0.1c0.1,0,0.3-0.1,0.7-0.3c0.3-0.2,0.6-0.4,0.8-0.7c0.6-0.8,1-2.1,1.1-3.8
			c-1.4-0.3-2.4-0.8-3-1.5c-0.7-0.7-1-2.2-1-4.4c0-1.6,0.2-2.8,0.6-3.5c0.4-0.8,1-1.2,1.8-1.5c0.8-0.2,2.1-0.3,3.8-0.2
			C199.5,347.5,200.8,348,201.7,348.9z"/>
		<path fill="none" stroke="#000000" stroke-width="2" d="M226.9,360.8c0.8,0.2,1.4,0.6,1.9,1.2c0.5,0.6,0.7,1.5,0.8,2.8
			c0,1.3-0.4,2.7-1.1,4.2c-0.8,1.5-1.9,2.3-3.3,2.3c-0.7,0-1.4-0.2-2.1-0.5c-0.7-0.3-1.5-0.5-2.6-0.5c-1.1,0-2.1,0.4-3,1.1
			c-0.9,0.7-1.4,1.7-1.4,2.7c0,4.2,0,8.4,0,12.6c0,0.9,0,1.6-0.1,2.1c-0.1,0.5-0.2,1-0.6,1.6c-0.6,1-2.2,1.5-4.7,1.5
			c-1.9,0-3.3-0.4-4.1-1.1c-0.6-0.6-1-1.5-1.1-2.6c0-0.4,0-1,0-1.7c0-7,0-14,0-21.1c0-0.9,0-1.6,0.1-2.1c0.1-0.5,0.2-1,0.5-1.5
			c0.6-1.1,2.1-1.6,4.7-1.5c2.4,0.1,3.9,0.5,4.5,1.5c0.4,0.6,0.7,1.3,0.7,2c0.2-0.3,0.5-0.6,0.9-1c0.4-0.4,1.2-0.9,2.4-1.6
			c1.2-0.7,2.3-1,3.3-1c0.9,0,1.7,0.1,2.4,0.2C225.4,360.4,226.1,360.6,226.9,360.8z"/>
		<path fill="none" stroke="#000000" stroke-width="2" d="M261.8,371.6c0,2.5-0.6,4.3-1.8,5.5c-1.2,1.2-2.6,1.9-4,1.9
			c-4.7,0.2-9.5,0.3-14.2,0.4c0,1.1,0.7,2,2,2.8c1.3,0.7,2.6,1.1,4,1c2.3-0.1,4.1-0.4,5.5-0.9c0.2-0.1,0.4-0.2,0.7-0.3
			c1-0.5,1.8-0.7,2.4-0.7c1.3,0,2.4,0.8,3.3,2.6c0.5,1.1,0.8,2,0.8,2.7c0,3.6-4.3,5.6-12.8,5.8c-3,0.1-5.6-0.4-7.9-1.4
			c-2.3-1-4.1-2.3-5.4-4c-2.5-3.2-3.8-6.8-3.8-10.8c0-5,1.6-9.1,4.9-12.1c3.3-3.1,7.3-4.6,12.2-4.8c5.6-0.2,9.6,1.6,12.2,5.4
			C261.1,366.9,261.8,369.2,261.8,371.6z M249.1,373.9c1.5,0,2.3-0.7,2.3-2c0-0.9-0.4-1.6-1-2.2c-0.7-0.5-1.7-0.8-3-0.8
			c-1.3,0-2.6,0.6-3.9,1.7c-1.3,1.1-1.9,2.2-1.9,3.4C244.1,374,246.6,374,249.1,373.9z"/>
		<path fill="none" stroke="#000000" stroke-width="2" d="M302.1,343.8c0.3-0.6,0.8-1.1,1.6-1.4c0.8-0.3,1.8-0.5,3-0.6
			c1.3-0.1,2.3-0.1,3,0.1c0.8,0.2,1.3,0.5,1.6,1.1c0.3,0.6,0.5,1.1,0.5,1.5c0.1,0.5,0.1,1.1,0.1,2.1c0,11.9,0,23.9,0,35.8
			c0,0.9,0,1.6-0.1,2.1c-0.1,0.5-0.2,1-0.6,1.6c-0.6,1.1-2.3,1.8-5.1,2.1c-2.8,0.2-4.3-0.6-4.7-2.5c-1.7,2.1-4,3.2-7,3.5
			c-3.6,0.3-6.9-1-9.8-4c-3-2.9-4.4-6.5-4.4-10.7c0-4.2,1.5-7.9,4.5-11.3c3-3.4,6.3-5.2,9.8-5.5c3-0.2,5.3,0.6,6.9,2.4
			c0-4.2,0-8.4,0-12.6c0-0.9,0-1.6,0.1-2.1C301.6,344.9,301.8,344.4,302.1,343.8z M292.3,377.2c1,1,2.3,1.4,3.8,1.3
			c1.5-0.1,2.7-0.8,3.7-1.9c1-1.2,1.5-2.4,1.5-3.7c0-1.3-0.5-2.5-1.4-3.5c-0.9-1-2.2-1.5-3.8-1.4c-1.6,0.1-2.9,0.8-3.8,2
			c-1,1.2-1.4,2.4-1.4,3.7C290.8,375,291.3,376.2,292.3,377.2z"/>
		<path fill="none" stroke="#000000" stroke-width="2" d="M320.8,359.1c3.4-3.5,7.2-5.4,11.5-5.9c4.3-0.5,8.1,0.6,11.5,3.4
			c3.3,2.7,5,6.5,5,11.3c0,3.3-0.9,6.4-2.6,9.2c-1.7,2.8-3.8,4.9-6.3,6.4c-2.5,1.5-5,2.4-7.7,2.7c-2.6,0.3-5.2-0.1-7.7-1.1
			c-2.5-1-4.6-2.8-6.3-5.1c-1.7-2.4-2.5-5.2-2.5-8.4C315.7,366.7,317.4,362.6,320.8,359.1z M328.3,374.5c1.3,0.8,2.6,1.2,3.9,1.1
			c1.3-0.1,2.6-0.8,4-1.9c1.3-1.1,2-2.7,2-4.7c0-2-0.6-3.3-1.9-4.2c-1.2-0.8-2.6-1.2-4-1c-1.4,0.2-2.8,0.8-4,1.9
			c-1.2,1.1-1.9,2.7-1.9,4.6C326.4,372.3,327,373.7,328.3,374.5z"/>
		<path fill="none" stroke="#000000" stroke-width="2" d="M362.3,344.6c-0.3,0.6-0.8,1.1-1.6,1.4c-0.8,0.3-1.8,0.6-3,0.7
			c-1.3,0.2-2.3,0.2-3,0c-0.8-0.1-1.3-0.5-1.6-1.1c-0.3-0.6-0.5-1.1-0.5-1.5c-0.1-0.5-0.1-1.1-0.1-2.1c0-0.9,0-1.6,0.1-2.1
			c0.1-0.5,0.2-1,0.5-1.6c0.6-1.1,2.1-1.9,4.7-2.2c2.5-0.3,4,0,4.6,1.1c0.3,0.6,0.5,1.1,0.6,1.5c0.1,0.5,0.1,1.1,0.1,2.1
			c0,0.9,0,1.6-0.1,2.1C362.8,343.4,362.6,344,362.3,344.6z M352.4,356.9c0-0.9,0-1.6,0.1-2.1c0.1-0.5,0.2-1,0.5-1.7
			c0.6-1.1,2.1-1.8,4.7-2.1c1.9-0.2,3.3-0.1,4.1,0.5c0.7,0.5,1,1.3,1.1,2.4c0,0.4,0.1,1,0.1,1.7c0,7,0,14,0,21c0,0.9,0,1.6-0.1,2.1
			c-0.1,0.5-0.3,1-0.6,1.7c-0.5,1.1-2.1,1.8-4.6,2.1c-2.5,0.3-4.1,0-4.6-1.1c-0.3-0.6-0.5-1.1-0.5-1.5c-0.1-0.4-0.1-1.1-0.1-2.1
			C352.4,371,352.4,363.9,352.4,356.9z"/>
		<path fill="none" stroke="#000000" stroke-width="2" d="M385.7,347.4c4-0.5,7.3,0.5,10,3.2c2.7,2.7,4,6.2,4,10.6c0,3.5,0,7,0,10.6
			c0,0.9,0,1.6-0.1,2.1c-0.1,0.5-0.2,1-0.5,1.6c-0.6,1.2-2.1,1.9-4.7,2.3c-2.8,0.4-4.5-0.1-4.9-1.6c-0.2-0.6-0.4-1.7-0.4-3
			c0-3.5,0-7,0-10.6c0-1.6-0.5-2.9-1.4-3.7c-0.9-0.8-2.2-1.1-3.8-0.9c-1.6,0.2-2.9,0.9-3.8,1.9c-1,1.1-1.5,2.4-1.5,4
			c0,3.5,0,7.1,0,10.6c0,0.9,0,1.6-0.1,2.1c-0.1,0.5-0.3,1-0.6,1.6c-0.5,1.1-2.1,1.9-4.6,2.2c-2.5,0.3-4.1,0-4.6-1
			c-0.3-0.6-0.5-1.1-0.5-1.5c-0.1-0.5-0.1-1.1-0.1-2.1c0-7.1,0-14.2,0-21.2c0-0.9,0-1.6,0.1-2c0.1-0.5,0.2-1,0.6-1.6
			c0.6-1.1,2.1-1.8,4.6-2.1c2.4-0.3,3.9-0.1,4.5,0.8c0.4,0.6,0.6,1.4,0.6,2.4c0.2-0.3,0.5-0.7,1.1-1.3c0.6-0.6,1.1-1.1,1.6-1.5
			C382.6,348.3,384.1,347.6,385.7,347.4z"/>
		<path fill="none" stroke="#000000" stroke-width="2" d="M424,369.8c-1.5,2.2-3.9,3.5-7.3,4c-3.3,0.5-6.4-0.6-9.3-3.3
			c-2.9-2.7-4.3-6-4.3-10.1c0-4.1,1.5-7.9,4.4-11.3c2.9-3.5,6.1-5.5,9.6-5.9c1.4-0.2,2.6-0.1,3.7,0.2c1.1,0.3,1.9,0.7,2.3,1.1
			c0.4,0.4,0.8,0.7,1,1c0.1-1.1,0.5-2,1.2-2.7c0.7-0.7,1.8-1.1,3.4-1.3c1.6-0.2,2.7-0.3,3.4-0.1c0.7,0.1,1.2,0.5,1.5,1
			c0.3,0.5,0.5,1,0.5,1.5c0.1,0.4,0.1,1.1,0.1,2c0,8.3,0,16.6,0,24.8c0,4.6-1.6,8.5-4.8,11.8c-3.2,3.3-6.8,5.2-10.8,5.7
			c-3,0.4-5.9,0.1-8.7-1c-2.8-1.1-4.1-2.3-4.1-3.5c0-1.6,0.6-3,1.8-4.4c0.8-0.9,1.4-1.6,1.8-2c0.4-0.4,0.9-0.6,1.5-0.7
			c0.6-0.1,1.1,0.1,1.7,0.5c1.9,1.2,4,1.7,6.2,1.4c1.5-0.2,2.8-1,3.7-2.3c1-1.3,1.4-2.8,1.4-4.5C424,371,424,370.4,424,369.8z
			 M413.3,359c0,1.3,0.5,2.4,1.5,3.3c1,0.9,2.3,1.2,3.7,1c1.5-0.2,2.7-0.9,3.6-2.1c1-1.2,1.4-2.4,1.4-3.7c0-1.3-0.5-2.4-1.4-3.3
			c-0.9-1-2.2-1.4-3.7-1.1c-1.6,0.2-2.8,0.9-3.8,2.1C413.8,356.5,413.3,357.7,413.3,359z"/>
		<path fill="none" stroke="#000000" stroke-width="2" d="M474.7,338.7c0.2-2.3,1.8-3.6,4.7-4c1.6-0.2,2.7-0.2,3.5-0.1
			c0.8,0.1,1.3,0.5,1.6,1.1c0.3,0.6,0.5,1.1,0.5,1.5c0.1,0.5,0.1,1.1,0.1,2.1c0,7,0,14,0,21c0,0.9,0,1.6-0.1,2.1
			c-0.1,0.5-0.2,1-0.5,1.7c-0.6,1.1-1.9,1.8-4.1,2.1c-2.2,0.3-3.6,0.2-4.4-0.3c-0.7-0.4-1.2-1.2-1.3-2.2c-1.5,2.3-4,3.7-7.4,4.1
			c-3.5,0.5-6.7-0.7-9.6-3.5c-3-2.8-4.4-6.2-4.4-10.4c0-4.2,1.5-8,4.5-11.6c3-3.5,6.2-5.5,9.8-6c1.4-0.2,2.6-0.1,3.7,0.2
			c1.1,0.3,1.9,0.7,2.3,1C474.1,337.9,474.4,338.3,474.7,338.7z M463.8,352.6c0,1.3,0.5,2.4,1.6,3.4c1,0.9,2.3,1.3,3.8,1.1
			c1.5-0.2,2.7-0.9,3.7-2.1c1-1.2,1.5-2.5,1.5-3.8c0-1.3-0.5-2.4-1.4-3.4c-0.9-1-2.2-1.4-3.8-1.2c-1.6,0.2-2.9,0.9-3.8,2.2
			C464.3,350,463.8,351.2,463.8,352.6z"/>
		<path fill="none" stroke="#000000" stroke-width="2" d="M525.2,357.1c-1.5,2.2-3.9,3.4-7.3,3.7c-3.3,0.3-6.4-0.8-9.3-3.6
			c-2.9-2.7-4.3-6.1-4.3-10.2c0-4.1,1.5-7.8,4.4-11.2c2.9-3.4,6.1-5.3,9.6-5.7c1.4-0.1,2.6,0,3.7,0.4c1.1,0.4,1.9,0.8,2.3,1.1
			c0.4,0.4,0.8,0.7,1,1.1c0.1-1.1,0.5-2,1.2-2.7c0.7-0.6,1.8-1.1,3.4-1.2c1.6-0.2,2.7-0.1,3.4,0c0.7,0.2,1.2,0.5,1.5,1.1
			c0.3,0.6,0.5,1,0.5,1.5c0.1,0.4,0.1,1.1,0.1,2c0,8.3,0,16.6,0,24.8c0,4.6-1.6,8.5-4.8,11.6c-3.2,3.1-6.8,4.9-10.8,5.3
			c-3,0.3-5.9-0.1-8.7-1.3c-2.8-1.2-4.1-2.4-4.1-3.6c0-1.6,0.6-3,1.8-4.3c0.8-0.9,1.3-1.6,1.8-1.9c0.4-0.4,0.9-0.6,1.5-0.6
			c0.6-0.1,1.1,0.1,1.7,0.5c1.9,1.3,4,1.8,6.2,1.6c1.5-0.2,2.8-0.9,3.7-2.2c1-1.3,1.4-2.8,1.4-4.5
			C525.2,358.3,525.2,357.7,525.2,357.1z M514.5,346c0,1.3,0.5,2.4,1.5,3.3c1,0.9,2.3,1.3,3.7,1.2c1.5-0.2,2.7-0.8,3.6-2
			c1-1.2,1.4-2.4,1.4-3.6c0-1.3-0.5-2.4-1.4-3.4c-0.9-1-2.2-1.4-3.7-1.3c-1.6,0.2-2.8,0.8-3.8,2C515,343.4,514.5,344.7,514.5,346z"
			/>
		<path fill="none" stroke="#000000" stroke-width="2" d="M562.2,326.7c0.8,0.2,1.4,0.6,1.9,1.1c0.5,0.5,0.7,1.5,0.8,2.7
			c0,1.3-0.4,2.7-1.1,4.3c-0.8,1.6-1.9,2.4-3.3,2.5c-0.7,0-1.4-0.1-2.1-0.3c-0.7-0.3-1.5-0.4-2.6-0.3c-1.1,0.1-2.1,0.5-3,1.4
			c-0.9,0.8-1.4,1.8-1.4,2.9c0,4.2,0,8.4,0,12.6c0,0.9,0,1.6-0.1,2.1c-0.1,0.5-0.3,1-0.6,1.6c-0.6,1.1-2.2,1.7-4.7,1.9
			c-1.9,0.2-3.3-0.1-4.1-0.7c-0.6-0.5-1-1.3-1.1-2.5c0-0.4,0-1,0-1.7c0-7,0-14,0-21.1c0-0.9,0-1.6,0.1-2.1c0.1-0.5,0.2-1,0.5-1.6
			c0.6-1.1,2.1-1.8,4.7-2c2.4-0.2,3.9,0.1,4.5,1c0.4,0.6,0.7,1.2,0.7,1.9c0.2-0.3,0.5-0.7,0.9-1.1c0.4-0.4,1.2-1,2.4-1.8
			c1.2-0.8,2.3-1.2,3.3-1.3c0.9-0.1,1.7-0.1,2.4,0C560.7,326.4,561.4,326.5,562.2,326.7z"/>
		<path fill="none" stroke="#000000" stroke-width="2" d="M597.1,336.7c0,2.5-0.6,4.3-1.8,5.5c-1.2,1.2-2.6,1.9-4,1.9
			c-4.7,0.2-9.5,0.4-14.2,0.6c0,1.1,0.7,2,2,2.7c1.3,0.7,2.6,1,4,1c2.3-0.1,4.1-0.4,5.5-0.9c0.2-0.1,0.4-0.2,0.7-0.3
			c1-0.5,1.8-0.7,2.4-0.7c1.3,0,2.4,0.8,3.3,2.6c0.5,1.1,0.8,2,0.8,2.7c0,3.6-4.3,5.4-12.8,5.8c-3,0.1-5.6-0.2-7.9-1.1
			c-2.3-0.9-4.1-2.1-5.4-3.7c-2.5-3.1-3.8-6.6-3.8-10.6c0-5,1.6-9.2,4.9-12.4c3.3-3.2,7.3-4.9,12.2-5.2c5.6-0.3,9.6,1.6,12.2,5.4
			C596.4,331.9,597.1,334.2,597.1,336.7z M584.4,338.9c1.5-0.1,2.3-0.7,2.3-2c0-0.9-0.4-1.6-1.1-2.2c-0.7-0.5-1.7-0.8-3-0.7
			c-1.3,0.1-2.6,0.7-3.9,1.8c-1.3,1.1-1.9,2.3-1.9,3.5C579.4,339.1,581.9,339,584.4,338.9z"/>
		<path fill="none" stroke="#000000" stroke-width="2" d="M620.7,327.7c0.2-2.2,1.8-3.4,4.7-3.3c1.6,0,2.7,0.2,3.5,0.4
			c0.8,0.3,1.3,0.7,1.6,1.3c0.3,0.6,0.5,1.1,0.5,1.6c0.1,0.5,0.1,1.2,0.1,2.1c0,7,0,14,0,21c0,0.9,0,1.6-0.1,2.1
			c-0.1,0.5-0.2,1-0.5,1.6c-0.6,1-1.9,1.5-4.1,1.5c-2.2,0-3.6-0.3-4.4-0.8c-0.7-0.5-1.2-1.3-1.3-2.4c-1.5,2.1-4,3.2-7.4,3.2
			c-3.5,0-6.7-1.5-9.6-4.6c-3-3.1-4.4-6.7-4.4-10.9c0-4.2,1.5-7.9,4.5-11.1c3-3.2,6.2-4.8,9.8-4.8c1.4,0,2.6,0.2,3.7,0.7
			c1.1,0.5,1.9,0.9,2.3,1.4C620.1,326.9,620.5,327.3,620.7,327.7z M609.8,340.2c0,1.3,0.5,2.5,1.6,3.6c1,1.1,2.3,1.6,3.8,1.6
			c1.5,0,2.7-0.5,3.7-1.6c1-1.1,1.5-2.3,1.5-3.6c0-1.3-0.5-2.5-1.4-3.6c-0.9-1.1-2.2-1.7-3.8-1.7c-1.6,0-2.9,0.6-3.8,1.7
			C610.3,337.7,609.8,338.9,609.8,340.2z"/>
		<path fill="none" stroke="#000000" stroke-width="2" d="M653.9,335.9c-1.3-0.2-2.6-0.3-3.9-0.4c0,2.8,0,5.5,0,8.3
			c0,1.1,0.2,1.9,0.5,2.4c0.3,0.5,1,0.8,1.9,0.8c0.9,0,1.7,0.1,2.2,0.2c0.5,0.1,1,0.3,1.6,0.7c0.9,0.6,1.4,1.9,1.4,4.1
			c0,2.5-0.6,4-1.7,4.5c-0.6,0.2-1.1,0.4-1.6,0.4c-0.5,0-1.1,0-2,0c-4.2-0.2-7.3-1.3-9.5-3.2c-2.2-2-3.2-5.2-3.2-9.7
			c0-3,0-5.9,0-8.9c-0.8,0.1-1.6,0.1-2.5,0.1c-0.9,0-1.6-0.4-2.2-1.1c-0.6-0.7-0.9-1.9-0.9-3.5c0-1.6,0.1-2.8,0.3-3.6
			c0.2-0.7,0.5-1.3,0.8-1.6c0.6-0.5,1.4-0.7,2.4-0.7c0.7,0.1,1.3,0.2,2,0.3c0-2.1,0-4.1,0-6.2c0-0.9,0-1.6,0.1-2
			c0.1-0.4,0.2-0.9,0.6-1.4c0.5-1,2.1-1.4,4.6-1.3c2.7,0.1,4.3,0.9,4.9,2.4c0.2,0.7,0.3,1.7,0.3,3.1c0,2,0,3.9,0,5.9
			c1.8-0.1,3.1-0.1,4,0c0.9,0.1,1.6,0.1,2,0.2c0.5,0.1,1,0.3,1.6,0.7c1,0.6,1.6,2.2,1.6,4.7c0,2.5-0.5,4-1.6,4.5
			c-0.6,0.2-1.1,0.4-1.6,0.4C655.5,336,654.8,336,653.9,335.9z"/>
		<path fill="none" stroke="#000000" stroke-width="2" d="M679.9,327.5c0.7-0.2,1.7-0.2,3,0c1.2,0.1,2.2,0.4,2.9,0.7
			c0.7,0.3,1.2,0.8,1.5,1.4c0.3,0.6,0.5,1.2,0.5,1.6c0.1,0.5,0.1,1.2,0.1,2.1c0,8.2,0,16.5,0,24.7c0,4.7-1.6,8.2-4.9,10.7
			c-3.2,2.5-6.8,3.5-10.7,3.2c-0.9-0.1-1.6-0.2-2-0.3c-0.4-0.1-0.9-0.3-1.5-0.6c-1-0.6-1.6-2.1-1.6-4.5c0-2.4,0.4-3.8,1.3-4.3
			c0.9-0.5,2-0.7,3.5-0.6c1.5,0.1,2.8-0.2,3.9-0.8c1.1-0.7,1.7-2.1,1.7-4.2c0-8.2,0-16.5,0-24.7c0-1.4,0.2-2.4,0.6-3
			C678.6,328.1,679.2,327.7,679.9,327.5z M685.7,323.2c-0.7,0.1-1.7,0.1-3,0c-1.2-0.1-2.2-0.4-2.9-0.7c-0.7-0.3-1.2-0.8-1.5-1.4
			c-0.3-0.6-0.5-1.1-0.5-1.6c-0.1-0.5-0.1-1.2-0.1-2.1c0-0.9,0-1.6,0.1-2c0.1-0.4,0.2-0.9,0.5-1.4c0.6-1,2.1-1.4,4.6-1.1
			c2.4,0.3,3.9,1,4.5,2.1c0.3,0.6,0.5,1.1,0.5,1.5c0.1,0.4,0.1,1.1,0.1,2c0,0.1,0,0.2,0,0.4c0,0.9,0,1.5-0.1,2
			c-0.1,0.4-0.3,0.9-0.6,1.4C687,322.8,686.5,323.1,685.7,323.2z"/>
		<path fill="none" stroke="#000000" stroke-width="2" d="M696.8,333.3c3.4-2.7,7.2-3.7,11.5-3c4.3,0.7,8.1,2.9,11.5,6.6
			c3.3,3.7,5,8,5,12.8c0,3.3-0.9,6.1-2.6,8.4c-1.7,2.3-3.8,3.8-6.3,4.6c-2.5,0.8-5,1-7.7,0.6c-2.6-0.4-5.2-1.4-7.7-3.1
			c-2.5-1.7-4.6-3.8-6.3-6.6c-1.7-2.8-2.6-5.7-2.6-8.9C691.8,339.7,693.5,336,696.8,333.3z M704.3,350.5c1.3,1.2,2.6,1.9,3.9,2.1
			c1.3,0.2,2.6-0.1,4-0.9c1.3-0.8,2-2.1,2-4.1c0-2-0.6-3.5-1.9-4.7c-1.2-1.2-2.6-1.9-4-2.1c-1.4-0.2-2.8,0.1-4,0.9
			c-1.2,0.8-1.9,2.2-1.9,4.1C702.4,347.8,703.1,349.4,704.3,350.5z"/>
		<path fill="none" stroke="#000000" stroke-width="2" d="M745.8,338.5c3.6,0.9,6.8,3.3,9.8,7.2c3,3.9,4.5,8,4.5,12.2
			c0,4.2-1.5,7.4-4.4,9.8c-3,2.4-6.1,3.1-9.5,2.3c-3.4-0.8-5.8-2.3-7.3-4.6c-0.3,1.9-2,2.5-5.2,1.8c-2.5-0.5-4.1-1.4-4.6-2.6
			c-0.3-0.7-0.5-1.2-0.5-1.7c-0.1-0.5-0.1-1.2-0.1-2.1c0-11.9,0-23.9,0-35.8c0-0.9,0-1.6,0.1-2.1c0.1-0.4,0.2-0.9,0.5-1.4
			c0.6-1,2.1-1.2,4.7-0.6c2.5,0.5,4,1.4,4.6,2.6c0.3,0.7,0.5,1.2,0.6,1.7c0.1,0.5,0.1,1.2,0.1,2.1c0,4.2,0,8.3,0,12.5
			C740.6,338.2,742.9,337.8,745.8,338.5z M740.6,356.6c1,1.3,2.2,2.1,3.7,2.5c1.5,0.3,2.7,0.1,3.8-0.7c1-0.8,1.6-1.9,1.6-3.2
			c0-1.3-0.5-2.6-1.4-4c-1-1.3-2.2-2.2-3.8-2.6c-1.6-0.4-2.9-0.1-3.8,0.8c-0.9,0.9-1.4,2-1.4,3.3C739.1,354,739.6,355.3,740.6,356.6
			z"/>
	</g>
</g>
</svg>
