<?xml version="1.0" encoding="utf-8"?>
<!-- Generator: Adobe Illustrator 19.1.0, SVG Export Plug-In . SVG Version: 6.00 Build 0)  -->
<svg version="1.1" id="Layer_1" xmlns="http://www.w3.org/2000/svg" xmlns:xlink="http://www.w3.org/1999/xlink" x="0px" y="0px"
	 viewBox="0 0 279.7 118" enable-background="new 0 0 279.7 118" xml:space="preserve">
<g>
	<path fill="none" stroke="#000000" stroke-width="3.3929" d="M14.3,73.8V22.2H8.7c-0.2-1.7-0.3-3.4-0.4-5.1
		c-0.1-1.7-0.1-3.4-0.1-5.1s0-3.4,0.1-5.1c0.1-1.7,0.2-3.4,0.4-5.1H42v28.5c1.6-1,3.6-1.9,6-2.7c2.4-0.8,5.2-1.2,8.4-1.2
		c3.2,0,6.1,0.4,8.8,1.3c2.7,0.9,5,2.2,7,4c2,1.8,3.5,4,4.6,6.5c1.1,2.6,1.6,5.6,1.6,9v26.6h5.6c0.2,1.7,0.3,3.4,0.4,5.1
		c0.1,1.7,0.1,3.4,0.1,5.1s0,3.4-0.1,5.1c-0.1,1.7-0.2,3.4-0.4,5.1H50.8V53.9c0-1.6-0.3-2.9-0.8-3.9c-0.5-1-1.4-1.5-2.7-1.5
		c-0.5,0-1,0.1-1.6,0.2c-0.6,0.2-1.2,0.5-1.7,1.2c-0.5,0.6-1,1.5-1.3,2.6c-0.4,1.1-0.5,2.7-0.5,4.6v37.1H8.7
		c-0.2-1.7-0.3-3.4-0.4-5.1c-0.1-1.7-0.1-3.4-0.1-5.1s0-3.4,0.1-5.1c0.1-1.7,0.2-3.4,0.4-5.1H14.3z"/>
	<path fill="none" stroke="#000000" stroke-width="3.3929" d="M155.3,92.7c-4.3,1.1-8.5,2-12.6,2.5c-4.1,0.5-8.6,0.8-13.4,0.8
		c-6.5,0-12.1-0.9-16.7-2.8c-4.6-1.9-8.5-4.4-11.5-7.6c-3-3.2-5.2-6.9-6.6-11.1c-1.4-4.2-2.1-8.8-2.1-13.6c0-4.5,0.7-8.8,2-12.9
		c1.3-4.2,3.3-7.8,6-11.1c2.7-3.2,6.1-5.8,10.4-7.8c4.2-2,9.3-2.9,15.1-2.9c6.2,0,11.4,1,15.5,2.9c4.2,2,7.5,4.5,9.9,7.6
		c2.4,3.1,4.2,6.5,5.2,10.3c1,3.8,1.5,7.6,1.5,11.3v9.4h-37.6c0.7,2.4,2.3,4.4,4.6,5.8c2.3,1.4,5.7,2.1,10.2,2.1
		c4.1,0,7.9-0.3,11.6-0.9c3.7-0.6,6.5-1.2,8.5-1.6V92.7z M132.9,53.4c0-6.8-2.2-10.1-6.5-10.1c-4.3,0-6.6,3.4-6.8,10.1H132.9z"/>
	<path fill="none" stroke="#000000" stroke-width="3.3929" d="M171.7,94.8c1.5,0.7,3.4,1.2,5.7,1.8c2.2,0.5,4.4,0.8,6.5,0.8
		c2.1,0,3.9-0.4,5.5-1.1c1.5-0.7,2.8-2.4,3.7-4.9l-20.8-42.9h-5.6c-0.2-1.7-0.3-3.4-0.4-5.1c-0.1-1.7-0.1-3.4-0.1-5.1s0-3.4,0.1-5.1
		c0.1-1.7,0.2-3.4,0.4-5.1h36.8c0.2,1.6,0.3,3.3,0.4,5c0.1,1.7,0.1,3.4,0.1,5c0,1.6,0,3.3-0.1,4.9c-0.1,1.7-0.2,3.3-0.4,4.9h-2.8
		l6.5,17.7l5.5-17.7h-2.8c-0.2-1.6-0.3-3.3-0.4-4.9c-0.1-1.7-0.1-3.3-0.1-4.9c0-1.6,0-3.3,0.1-5c0.1-1.7,0.2-3.4,0.4-5h34.9
		c0.2,1.7,0.3,3.4,0.4,5.1c0.1,1.7,0.1,3.4,0.1,5.1s0,3.4-0.1,5.1c-0.1,1.7-0.2,3.4-0.4,5.1h-5.6l-19.8,47.4c-2,4.9-4.4,8.7-7,11.5
		c-2.6,2.8-5.3,4.8-7.9,6.1c-2.7,1.3-5.3,2.1-7.9,2.4c-2.6,0.3-4.9,0.4-7,0.4c-4.2,0-7.6-0.3-10.4-0.8c-2.8-0.5-5.3-1-7.4-1.5V94.8z
		"/>
	<path fill="none" stroke="#000000" stroke-width="3.3929" d="M277.5,67c0.2,2.4,0.3,4.7,0.4,6.9c0.1,2.2,0.1,4.5,0.1,6.8
		c0,2.3,0,4.5-0.1,6.8c-0.1,2.2-0.2,4.5-0.4,6.8h-29.8c-0.2-2.3-0.3-4.5-0.4-6.8c-0.1-2.2-0.2-4.5-0.2-6.8c0-2.3,0.1-4.5,0.2-6.8
		c0.1-2.2,0.3-4.5,0.4-6.9H277.5z"/>
</g>
</svg>
